<?xml version="1.0" encoding="UTF-8" standalone="no"?>
<!-- Created with Inkscape (http://www.inkscape.org/) -->

<svg
   xmlns:dc="http://purl.org/dc/elements/1.1/"
   xmlns:cc="http://creativecommons.org/ns#"
   xmlns:rdf="http://www.w3.org/1999/02/22-rdf-syntax-ns#"
   xmlns:svg="http://www.w3.org/2000/svg"
   xmlns="http://www.w3.org/2000/svg"
   version="1.1"
   width="1200"
   height="1200"
   viewBox="0 0 1200 1200"
   id="svg4048">
  <defs
     id="defs4050" />
  <metadata
     id="metadata4053">
    <rdf:RDF>
      <cc:Work
         rdf:about="">
        <dc:format>image/svg+xml</dc:format>
        <dc:type
           rdf:resource="http://purl.org/dc/dcmitype/StillImage" />
        <dc:title></dc:title>
      </cc:Work>
    </rdf:RDF>
  </metadata>
  <path
     d="m 590.65368,107.88753 0,-58.901516 9.2803,0 9.2803,0 0,58.901516 0,58.90151 -9.2803,0 -9.2803,0 0,-58.90151 z"
     id="path3844"
     style="fill:#000000;fill-opacity:1;stroke:#000000;stroke-width:0.02;stroke-miterlimit:4;stroke-dasharray:none" />
  <path
     d="m 651.68061,101.03781 c -4.45602,-0.49192 -8.15379,-0.94633 -8.21728,-1.00982 -0.12564,-0.125639 4.75894,-46.994404 4.91381,-47.149274 0.11236,-0.112366 18.55475,1.825407 18.70721,1.965599 0.0947,0.08704 -4.13249,41.051479 -4.68204,45.372755 -0.2742,2.15615 0.69982,2.0816 -10.7217,0.82074 l 0,0 z"
     id="path3846"
     style="fill:#000000;fill-opacity:1;stroke:#000000;stroke-width:0.02;stroke-linecap:butt;stroke-linejoin:miter;stroke-miterlimit:4;stroke-opacity:1;stroke-dasharray:none;stroke-dashoffset:0;marker:none;visibility:visible;display:inline;overflow:visible;enable-background:accumulate" />
  <path
     d="m 704.60552,108.31419 c -4.93065,-1.06799 -9.08255,-2.05962 -9.22644,-2.20361 -0.14389,-0.14398 2.01528,-11.009283 4.79816,-24.145106 4.13363,-19.511719 5.17063,-23.883793 5.66542,-23.885932 0.5493,-0.0024 18.66101,3.781019 18.75067,3.916868 0.22017,0.333579 -10.35007,48.34103 -10.63606,48.30642 -0.21281,-0.0258 -4.4211,-0.92064 -9.35175,-1.98864 l 0,0 z"
     id="path3848"
     style="fill:#000000;fill-opacity:1;stroke:#000000;stroke-width:0.02;stroke-linecap:butt;stroke-linejoin:miter;stroke-miterlimit:4;stroke-opacity:1;stroke-dasharray:none;stroke-dashoffset:0;marker:none;visibility:visible;display:inline;overflow:visible;enable-background:accumulate" />
  <path
     d="m 755.23701,121.83593 c -4.79167,-1.56797 -8.77305,-2.90873 -8.84753,-2.97947 -0.14424,-0.13703 14.6375,-45.917939 15.04568,-46.59834 0.30973,-0.516289 18.61959,5.42113 18.5949,6.029847 -0.01,0.238093 -3.38058,10.743917 -7.49094,23.346273 -5.19529,15.92877 -7.64356,22.93459 -8.03168,22.98295 -0.30707,0.0383 -4.47876,-1.2133 -9.27043,-2.78126 z"
     id="path3850"
     style="fill:#000000;fill-opacity:1;stroke:#000000;stroke-width:0.02;stroke-linecap:butt;stroke-linejoin:miter;stroke-miterlimit:4;stroke-opacity:1;stroke-dasharray:none;stroke-dashoffset:0;marker:none;visibility:visible;display:inline;overflow:visible;enable-background:accumulate" />
  <path
     d="m 804.87282,140.84398 c -4.74185,-2.12365 -8.71524,-3.95487 -8.82974,-4.06937 -0.1659,-0.1659 19.28521,-44.381406 19.77481,-44.951346 0.11075,-0.128922 17.47362,7.400236 17.88508,7.755606 0.15718,0.135752 -19.59386,44.56776 -19.95875,44.89929 -0.13741,0.12485 -4.12954,-1.51054 -8.8714,-3.63418 l 0,0 z"
     id="path3852"
     style="fill:#000000;fill-opacity:1;stroke:#000000;stroke-width:0.02;stroke-linecap:butt;stroke-linejoin:miter;stroke-miterlimit:4;stroke-opacity:1;stroke-dasharray:none;stroke-dashoffset:0;marker:none;visibility:visible;display:inline;overflow:visible;enable-background:accumulate" />
  <path
     d="m 816.90347,224.76581 c -4.375,-2.54611 -7.95454,-4.79915 -7.95454,-5.00675 0,-0.55427 58.64488,-102.03761 58.96518,-102.03761 0.57636,0 16.40985,9.4133 16.34416,9.71691 -0.17108,0.79082 -58.69137,101.78545 -59.02526,101.86613 -0.20625,0.0498 -3.95454,-1.99258 -8.32954,-4.53868 z"
     id="path3854"
     style="fill:#000000;fill-opacity:1;stroke:#000000;stroke-width:0.02;stroke-linecap:butt;stroke-linejoin:miter;stroke-miterlimit:4;stroke-opacity:1;stroke-dasharray:none;stroke-dashoffset:0;marker:none;visibility:visible;display:inline;overflow:visible;enable-background:accumulate" />
  <path
     d="m 895.88074,193.39423 c -4.27083,-3.12463 -7.72441,-5.82705 -7.67461,-6.00538 0.2463,-0.88214 28.64946,-39.53838 28.98082,-39.44244 0.21147,0.0612 3.83154,2.61805 8.04461,5.68182 l 7.6601,5.57049 -1.95194,2.65151 c -1.07357,1.45834 -7.38208,10.15152 -14.01892,19.31818 -6.63683,9.16667 -12.33875,16.94574 -12.67093,17.28681 -0.55692,0.57183 -1.20899,0.17751 -8.36913,-5.06099 z"
     id="path3856"
     style="fill:#000000;fill-opacity:1;stroke:#000000;stroke-width:0.02;stroke-linecap:butt;stroke-linejoin:miter;stroke-miterlimit:4;stroke-opacity:1;stroke-dasharray:none;stroke-dashoffset:0;marker:none;visibility:visible;display:inline;overflow:visible;enable-background:accumulate" />
  <path
     d="m 936.72274,226.51808 c -3.89106,-3.48398 -7.08608,-6.41974 -7.10003,-6.52391 -0.0291,-0.21713 29.59983,-33.184 31.71757,-35.29084 l 1.39653,-1.38933 7.00757,6.35394 c 3.85417,3.49467 7.00758,6.53812 7.00758,6.76323 0,0.4669 -32.28508,36.4472 -32.69004,36.4316 -0.14548,-0.006 -3.44811,-2.86071 -7.33918,-6.34469 l 0,0 z"
     id="path3858"
     style="fill:#000000;fill-opacity:1;stroke:#000000;stroke-width:0.02;stroke-linecap:butt;stroke-linejoin:miter;stroke-miterlimit:4;stroke-opacity:1;stroke-dasharray:none;stroke-dashoffset:0;marker:none;visibility:visible;display:inline;overflow:visible;enable-background:accumulate" />
  <path
     d="m 974.22681,263.97404 c -3.47217,-3.87643 -6.33892,-7.2185 -6.37057,-7.42684 -0.0316,-0.20833 8.09331,-7.74389 18.05545,-16.74569 l 18.11301,-16.36691 2.0833,2.18235 c 1.1459,1.20029 4.1497,4.47884 6.6752,7.28568 l 4.5918,5.10333 -17.0048,15.33123 c -9.35267,8.43217 -17.64059,15.8608 -18.4176,16.50806 l -1.41276,1.17683 -6.31303,-7.04804 z"
     id="path3860"
     style="fill:#000000;fill-opacity:1;stroke:#000000;stroke-width:0.02;stroke-linecap:butt;stroke-linejoin:miter;stroke-miterlimit:4;stroke-opacity:1;stroke-dasharray:none;stroke-dashoffset:0;marker:none;visibility:visible;display:inline;overflow:visible;enable-background:accumulate" />
  <path
     d="m 974.22681,263.97404 c -3.47217,-3.87643 -6.33892,-7.2185 -6.37057,-7.42684 -0.0316,-0.20833 8.09331,-7.74389 18.05545,-16.74569 l 18.11301,-16.36691 2.0833,2.18235 c 1.1459,1.20029 4.1497,4.47884 6.6752,7.28568 l 4.5918,5.10333 -17.0048,15.33123 c -9.35267,8.43217 -17.64059,15.8608 -18.4176,16.50806 l -1.41276,1.17683 -6.31303,-7.04804 z"
     id="path3862"
     style="fill:#000000;fill-opacity:1;stroke:#000000;stroke-width:0.02;stroke-linecap:butt;stroke-linejoin:miter;stroke-miterlimit:4;stroke-opacity:1;stroke-dasharray:none;stroke-dashoffset:0;marker:none;visibility:visible;display:inline;overflow:visible;enable-background:accumulate" />
  <path
     d="m 1007.3962,304.82524 c -2.9463,-4.13991 -5.3569,-7.72281 -5.3569,-7.96198 0,-0.58294 38.9755,-28.89701 39.4091,-28.62905 1.0752,0.66455 11.2579,15.40436 10.8736,15.73991 -1.011,0.88258 -39.2011,28.43022 -39.3788,28.4051 -0.1046,-0.0148 -2.6007,-3.41407 -5.547,-7.55398 z"
     id="path3864"
     style="fill:#000000;fill-opacity:1;stroke:#000000;stroke-width:0.02;stroke-linecap:butt;stroke-linejoin:miter;stroke-miterlimit:4;stroke-opacity:1;stroke-dasharray:none;stroke-dashoffset:0;marker:none;visibility:visible;display:inline;overflow:visible;enable-background:accumulate" />
  <path
     d="m 975.89932,383.56625 c -2.58475,-4.46921 -4.51031,-8.30061 -4.27902,-8.51425 0.2313,-0.21362 23.0801,-13.45854 50.7751,-29.43314 27.695,-15.9746 50.4902,-29.12514 50.656,-29.22343 0.3089,-0.18313 9.6228,15.61889 9.5913,16.27258 -0.014,0.29057 -100.34995,58.40502 -101.67148,58.88799 -0.20479,0.0749 -2.48715,-3.52054 -5.0719,-7.98975 l 0,0 z"
     id="path3866"
     style="fill:#000000;fill-opacity:1;stroke:#000000;stroke-width:0.02;stroke-linecap:butt;stroke-linejoin:miter;stroke-miterlimit:4;stroke-opacity:1;stroke-dasharray:none;stroke-dashoffset:0;marker:none;visibility:visible;display:inline;overflow:visible;enable-background:accumulate" />
  <path
     d="m 1062.3087,401.1584 c -0.8685,-1.91557 -2.6629,-5.92704 -3.9874,-8.91437 l -2.4082,-5.4315 2.2581,-0.97777 c 1.2419,-0.53777 11.0566,-4.89281 21.8106,-9.67786 10.7539,-4.78506 19.8568,-8.81941 20.2286,-8.96522 0.6787,-0.26612 1.1623,0.67321 6.2197,12.07965 l 2.3749,5.35644 -21.9716,9.82432 c -12.0844,5.40338 -22.1907,9.90641 -22.4585,10.00675 -0.2678,0.10034 -1.1976,-1.38486 -2.0662,-3.30044 z"
     id="path3868"
     style="fill:#000000;fill-opacity:1;stroke:#000000;stroke-width:0.02;stroke-linecap:butt;stroke-linejoin:miter;stroke-miterlimit:4;stroke-opacity:1;stroke-dasharray:none;stroke-dashoffset:0;marker:none;visibility:visible;display:inline;overflow:visible;enable-background:accumulate" />
  <path
     d="m 1078.7605,445.05031 c -2.1418,-6.54315 -2.8171,-9.25773 -2.3621,-9.49645 1.1157,-0.58538 46.0003,-15.02114 46.1491,-14.84247 0.3785,0.45429 5.6461,16.88595 5.6461,17.61236 0,0.76791 -13.7525,5.5188 -41.0285,14.17361 l -5.4053,1.71513 -2.9993,-9.16218 z"
     id="path3870"
     style="fill:#000000;fill-opacity:1;stroke:#000000;stroke-width:0.02;stroke-linecap:butt;stroke-linejoin:miter;stroke-miterlimit:4;stroke-opacity:1;stroke-dasharray:none;stroke-dashoffset:0;marker:none;visibility:visible;display:inline;overflow:visible;enable-background:accumulate" />
  <path
     d="m 1094.2479,504.31595 c -0.6254,-2.17467 -3.5524,-16.33249 -3.5524,-17.18277 0,-0.79044 3.5264,-1.67329 23.8289,-5.96573 13.1059,-2.7709 23.9104,-4.93344 24.01,-4.80565 0.3654,0.46881 4.0272,18.45197 3.8029,18.67621 -0.2158,0.21586 -46.6509,10.21034 -47.4541,10.21381 -0.2011,8.7e-4 -0.487,-0.42027 -0.6353,-0.93587 z"
     id="path3872"
     style="fill:#000000;fill-opacity:1;stroke:#000000;stroke-width:0.02;stroke-linecap:butt;stroke-linejoin:miter;stroke-miterlimit:4;stroke-opacity:1;stroke-dasharray:none;stroke-dashoffset:0;marker:none;visibility:visible;display:inline;overflow:visible;enable-background:accumulate" />
  <path
     d="m 1100.6323,548.10078 c -0.5328,-5.30938 -0.8772,-9.73296 -0.7654,-9.83019 0.3938,-0.34272 48.2556,-5.2101 48.5303,-4.93538 0.3446,0.34462 2.3254,18.69281 2.0479,18.97027 -0.1103,0.11029 -10.2845,1.25564 -22.6094,2.54521 -12.3248,1.28958 -23.2697,2.47041 -24.3218,2.62409 l -1.9131,0.27941 -0.9685,-9.65341 z"
     id="path3876"
     style="fill:#000000;fill-opacity:1;stroke:#000000;stroke-width:0.02;stroke-linecap:butt;stroke-linejoin:miter;stroke-miterlimit:4;stroke-opacity:1;stroke-dasharray:none;stroke-dashoffset:0;marker:none;visibility:visible;display:inline;overflow:visible;enable-background:accumulate" />
  <path
     d="m 1033.9127,600.62713 0,-9.64237 59.1934,0 59.1934,0 0,9.64237 0,9.64236 -59.1934,0 -59.1934,0 0,-9.64236 z"
     id="path3878"
     style="fill:#000000;fill-opacity:1;stroke:#000000;stroke-width:0.02;stroke-linecap:butt;stroke-linejoin:miter;stroke-miterlimit:4;stroke-opacity:1;stroke-dasharray:none;stroke-dashoffset:0;marker:none;visibility:visible;display:inline;overflow:visible;enable-background:accumulate" />
  <path
     d="m 1124.0407,665.47854 c -13.038,-1.39467 -23.8542,-2.68448 -24.0359,-2.86624 -0.2967,-0.29665 1.3425,-18.60653 1.7047,-19.0428 0.1423,-0.17133 48.5636,4.78045 48.8528,4.99591 0.1379,0.10269 -1.1799,12.9926 -1.7668,17.2816 -0.1713,1.25217 -0.4775,2.25207 -0.6804,2.22199 -0.2029,-0.0301 -11.0364,-1.19578 -24.0744,-2.59046 z"
     id="path3880"
     style="fill:#000000;fill-opacity:1;stroke:#000000;stroke-width:0.02;stroke-linecap:butt;stroke-linejoin:miter;stroke-miterlimit:4;stroke-opacity:1;stroke-dasharray:none;stroke-dashoffset:0;marker:none;visibility:visible;display:inline;overflow:visible;enable-background:accumulate" />
  <path
     d="m 550.0607,1191.7859 c -37.9421,-3.6507 -79.8316,-11.5544 -115.13739,-21.724 C 297.14029,1130.3745 176.22687,1039.5603 98.456043,917.35217 85.15974,896.45852 57.058826,841.90335 49.403382,822.12121 17.063614,738.55332 3.5853303,659.55973 7.0937675,574.15283 15.912028,359.48738 141.83801,165.41364 335.11058,68.622117 463.82482,4.1616104 611.8956,-10.966658 752.04899,26.023865 876.5882,58.893359 989.07364,133.2364 1068.3267,235.05582 c 67.1893,86.3205 108.0971,186.45498 121.9168,298.42903 4.1417,33.55777 4.1465,99.96603 0.01,133.16691 -13.5277,108.57235 -53.2555,207.4775 -117.2217,291.83309 -16.8325,22.19798 -28.4551,35.47917 -51.49,58.83795 -83.76203,84.94 -189.02958,141.4631 -307.8002,165.2725 -36.16466,7.2498 -60.37262,9.5397 -106.0606,10.0327 -24.16667,0.2608 -50.0954,-0.1182 -57.6194,-0.8421 z m 121.25576,-20.3427 c 72.17856,-10.1911 127.08397,-27.0354 187.87879,-57.639 164.14545,-82.6294 277.72715,-236.83432 308.19015,-418.41659 5.9772,-35.62882 6.9549,-49.05834 6.9332,-95.23609 -0.024,-50.9756 -1.7557,-69.41544 -10.6727,-113.63637 -15.081,-74.78995 -43.7113,-143.42977 -86.2612,-206.8068 C 994.90255,156.85312 867.9535,70.480492 723.58919,38.995648 615.30613,15.379874 498.63975,23.970621 395.82805,63.130391 371.44322,72.418283 326.92049,93.97532 305.40737,106.91031 229.77525,152.38492 167.85047,211.81344 119.85426,284.98362 69.1266,362.31786 40.140779,443.01235 28.686637,538.78788 c -3.193064,26.69929 -3.647864,90.65886 -0.829587,116.66667 14.140708,130.49418 65.481449,244.41677 152.00888,337.30025 98.4957,105.7309 228.11351,168.1093 377.05659,181.4578 16.48494,1.4774 98.35306,-0.5046 114.39394,-2.7694 l 0,0 z"
     id="path3882"
     style="fill:#000000;fill-opacity:1;stroke:#000000;stroke-width:0.02;stroke-linecap:butt;stroke-linejoin:miter;stroke-miterlimit:4;stroke-opacity:1;stroke-dasharray:none;stroke-dashoffset:0;marker:none;visibility:visible;display:inline;overflow:visible;enable-background:accumulate" />
  <path
     d=""
     id="path3918"
     style="fill:#000000;fill-opacity:1;stroke:#000000;stroke-width:0.02;stroke-linecap:butt;stroke-linejoin:miter;stroke-miterlimit:4;stroke-opacity:1;stroke-dasharray:none;stroke-dashoffset:0;marker:none;visibility:visible;display:inline;overflow:visible;enable-background:accumulate" />
  <path
     d="m 47.801105,600.4781 0,-9.84848 59.280305,0 59.2803,0 0,9.84848 0,9.84849 -59.2803,0 -59.280305,0 0,-9.84849 z"
     id="path3944"
     style="fill:#000000;fill-opacity:1;stroke:#000000;stroke-width:0.02;stroke-linecap:butt;stroke-linejoin:miter;stroke-miterlimit:4;stroke-opacity:1;stroke-dasharray:none;stroke-dashoffset:0;marker:none;visibility:visible;display:inline;overflow:visible;enable-background:accumulate" />
  <path
     d="m 51.31822,668.04904 c -0.171064,-0.56527 -2.037763,-19.49221 -1.932801,-19.59717 0.06356,-0.0636 10.876551,-1.24665 24.028879,-2.6291 13.152328,-1.38245 24.217271,-2.55227 24.588763,-2.5996 l 0.67544,-0.0861 1.040566,9.87315 c 0.924433,8.77129 1.007583,9.88718 0.745013,9.99891 -0.16255,0.0692 -11.076801,1.24344 -24.253884,2.60948 -13.177084,1.36604 -24.151967,2.52602 -24.388629,2.57775 -0.254487,0.0556 -0.460142,-0.005 -0.503347,-0.14736 z"
     id="path3946"
     style="fill:#000000;fill-opacity:1;stroke:#000000;stroke-width:0.02;stroke-linecap:butt;stroke-linejoin:miter;stroke-miterlimit:4;stroke-opacity:1;stroke-dasharray:none;stroke-dashoffset:0;marker:none;visibility:visible;display:inline;overflow:visible;enable-background:accumulate" />
  <path
     d="m 61.356613,724.88627 c -0.152171,-0.45471 -4.086338,-19.16822 -4.037681,-19.20588 0.102529,-0.0794 48.494148,-10.32135 48.538618,-10.2731 0.16243,0.1762 4.10647,19.29678 4.00195,19.4013 -0.11334,0.11335 -45.893588,9.92152 -47.708653,10.22133 -0.511902,0.0846 -0.731134,0.0449 -0.794234,-0.14365 l 0,0 z"
     id="path3948"
     style="fill:#000000;fill-opacity:1;stroke:#000000;stroke-width:0.02;stroke-linecap:butt;stroke-linejoin:miter;stroke-miterlimit:4;stroke-opacity:1;stroke-dasharray:none;stroke-dashoffset:0;marker:none;visibility:visible;display:inline;overflow:visible;enable-background:accumulate" />
  <path
     d="m 77.181836,780.17293 c -0.109417,-0.34257 -1.481747,-4.58067 -3.049623,-9.418 -1.567875,-4.83732 -2.785767,-8.85061 -2.706425,-8.91841 0.162125,-0.13854 46.150212,-15.07666 46.723052,-15.17686 0.32661,-0.0571 0.70117,0.96034 3.42763,9.31086 1.68353,5.15625 3.01,9.42574 2.94772,9.48775 -0.0847,0.0843 -44.490829,14.54107 -46.734386,15.21471 -0.340417,0.10222 -0.442399,0.0183 -0.607968,-0.50005 l 0,0 z"
     id="path3950"
     style="fill:#000000;fill-opacity:1;stroke:#000000;stroke-width:0.02;stroke-linecap:butt;stroke-linejoin:miter;stroke-miterlimit:4;stroke-opacity:1;stroke-dasharray:none;stroke-dashoffset:0;marker:none;visibility:visible;display:inline;overflow:visible;enable-background:accumulate" />
  <path
     d="m 98.971421,834.06287 c -0.10147,-0.19038 -1.738911,-3.84045 -3.638758,-8.11128 -1.899847,-4.27084 -3.650781,-8.2038 -3.890964,-8.73991 l -0.436696,-0.97476 22.639017,-10.07783 c 12.45146,-5.54281 22.70583,-10.00474 22.78748,-9.9154 0.39518,0.43238 7.99335,17.91201 7.8453,18.04812 -0.13429,0.12346 -43.83153,19.62241 -44.848141,20.01252 -0.152065,0.0583 -0.354378,-0.0485 -0.457238,-0.24146 z"
     id="path3952"
     style="fill:#000000;fill-opacity:1;stroke:#000000;stroke-width:0.02;stroke-linecap:butt;stroke-linejoin:miter;stroke-miterlimit:4;stroke-opacity:1;stroke-dasharray:none;stroke-dashoffset:0;marker:none;visibility:visible;display:inline;overflow:visible;enable-background:accumulate" />
  <path
     d="m 127.10358,885.75589 c -0.23095,-0.38917 -2.39503,-4.11797 -4.80909,-8.28624 -3.92099,-6.77026 -4.35599,-7.60432 -4.07799,-7.81916 0.36716,-0.28375 99.93832,-57.78195 100.30856,-57.92402 0.30921,-0.11866 9.89721,16.35955 9.64803,16.58138 -0.09,0.0801 -22.06706,12.78371 -48.83789,28.23017 -26.77084,15.44645 -49.38018,28.49868 -50.24298,29.00495 l -1.56874,0.92048 -0.4199,-0.70756 0,0 z"
     id="path3954"
     style="fill:#000000;fill-opacity:1;stroke:#000000;stroke-width:0.02;stroke-linecap:butt;stroke-linejoin:miter;stroke-miterlimit:4;stroke-opacity:1;stroke-dasharray:none;stroke-dashoffset:0;marker:none;visibility:visible;display:inline;overflow:visible;enable-background:accumulate" />
  <path
     d="m 152.85651,925.43273 c -5.4548,-7.51548 -5.78654,-8.01864 -5.47825,-8.30895 0.18048,-0.16997 8.9361,-6.5553 19.45694,-14.18963 10.52083,-7.63433 19.39606,-14.08266 19.72273,-14.32964 l 0.59395,-0.44905 5.79809,7.97079 c 3.18896,4.38394 5.7981,8.04004 5.7981,8.12468 0,0.13393 -39.83171,29.18172 -40.01536,29.18172 -0.0384,0 -2.68267,-3.59997 -5.8762,-7.99992 z"
     id="path3956"
     style="fill:#000000;fill-opacity:1;stroke:#000000;stroke-width:0.02;stroke-linecap:butt;stroke-linejoin:miter;stroke-miterlimit:4;stroke-opacity:1;stroke-dasharray:none;stroke-dashoffset:0;marker:none;visibility:visible;display:inline;overflow:visible;enable-background:accumulate" />
  <path
     d="m 189.27838,970.43273 c -3.59375,-4.00945 -6.53409,-7.35339 -6.53409,-7.43098 0,-0.12987 36.15809,-32.77028 36.61428,-33.05222 0.11416,-0.0706 2.81198,2.77878 6.20741,6.55605 3.30301,3.67447 6.29562,6.98781 6.65023,7.36298 l 0.64476,0.68212 -18.37855,16.55151 c -10.10821,9.10333 -18.44412,16.56702 -18.52426,16.58598 -0.0801,0.019 -3.08603,-3.24599 -6.67978,-7.25544 z"
     id="path3958"
     style="fill:#000000;fill-opacity:1;stroke:#000000;stroke-width:0.02;stroke-linecap:butt;stroke-linejoin:miter;stroke-miterlimit:4;stroke-opacity:1;stroke-dasharray:none;stroke-dashoffset:0;marker:none;visibility:visible;display:inline;overflow:visible;enable-background:accumulate" />
  <path
     d="m 230.32505,1011.4659 c -3.90625,-3.5276 -7.17947,-6.5361 -7.27382,-6.6855 -0.12951,-0.205 3.83412,-4.7226 16.17219,-18.43274 8.98905,-9.98868 16.43859,-18.2649 16.55452,-18.39161 0.16085,-0.17579 1.94214,1.32742 7.51838,6.3447 4.01917,3.61629 7.34285,6.63469 7.38596,6.70754 0.083,0.14023 -32.95116,36.90201 -33.14285,36.88281 -0.0617,-0.01 -3.30813,-2.8975 -7.21438,-6.4252 z"
     id="path3960"
     style="fill:#000000;fill-opacity:1;stroke:#000000;stroke-width:0.02;stroke-linecap:butt;stroke-linejoin:miter;stroke-miterlimit:4;stroke-opacity:1;stroke-dasharray:none;stroke-dashoffset:0;marker:none;visibility:visible;display:inline;overflow:visible;enable-background:accumulate" />
  <path
     d="m 275.20106,1047.7723 c -4.3286,-3.1472 -7.90815,-5.7866 -7.95454,-5.8652 -0.0996,-0.1688 28.82003,-40.0854 29.04951,-40.096 0.16298,-0.01 15.11805,10.7946 15.71162,11.3486 0.32072,0.2993 -0.39973,1.3311 -14.16318,20.2847 -7.9756,10.9831 -14.56231,19.9875 -14.63715,20.0097 -0.0748,0.022 -3.67765,-2.5346 -8.00626,-5.6818 l 0,0 z"
     id="path3962"
     style="fill:#000000;fill-opacity:1;stroke:#000000;stroke-width:0.02;stroke-linecap:butt;stroke-linejoin:miter;stroke-miterlimit:4;stroke-opacity:1;stroke-dasharray:none;stroke-dashoffset:0;marker:none;visibility:visible;display:inline;overflow:visible;enable-background:accumulate" />
  <path
     d="m 323.97701,1078.8101 c -4.91444,-2.8389 -8.32195,-4.9192 -8.31037,-5.0735 0.0187,-0.2489 58.65702,-101.96407 58.9774,-102.30332 0.0843,-0.0892 3.95403,2.03192 8.59945,4.71368 l 8.44623,4.87592 -0.55785,0.96814 c -23.65771,41.05728 -58.65478,101.61768 -58.72683,101.62338 -0.0539,0 -3.84654,-2.1577 -8.42803,-4.8043 l 0,0 z"
     id="path3964"
     style="fill:#000000;fill-opacity:1;stroke:#000000;stroke-width:0.02;stroke-linecap:butt;stroke-linejoin:miter;stroke-miterlimit:4;stroke-opacity:1;stroke-dasharray:none;stroke-dashoffset:0;marker:none;visibility:visible;display:inline;overflow:visible;enable-background:accumulate" />
  <path
     d="m 375.22682,1105.5056 c -6.33371,-2.8282 -8.97868,-4.0966 -8.93696,-4.2856 0.0663,-0.3005 19.89865,-44.9107 20.01974,-45.0318 0.0424,-0.042 4.16352,1.7387 9.15808,3.9579 l 9.08101,4.0349 -0.42785,0.961 c -0.23532,0.5286 -4.75268,10.677 -10.03859,22.552 -5.28591,11.875 -9.66665,21.6444 -9.73498,21.7099 -0.0683,0.065 -4.17254,-1.6888 -9.12045,-3.8983 z"
     id="path3966"
     style="fill:#000000;fill-opacity:1;stroke:#000000;stroke-width:0.02;stroke-linecap:butt;stroke-linejoin:miter;stroke-miterlimit:4;stroke-opacity:1;stroke-dasharray:none;stroke-dashoffset:0;marker:none;visibility:visible;display:inline;overflow:visible;enable-background:accumulate" />
  <path
     d="m 429.12117,1126.2207 c -5.09768,-1.6628 -9.28875,-3.0436 -9.31348,-3.0683 -0.0456,-0.046 15.24498,-47.1595 15.32095,-47.2072 0.0227,-0.014 4.26011,1.3475 9.41636,3.0263 6.9213,2.2535 9.375,3.1277 9.375,3.3402 0,0.5732 -15.15654,46.9507 -15.34091,46.9417 -0.10417,-0.01 -4.36023,-1.3698 -9.45792,-3.0327 z"
     id="path3968"
     style="fill:#000000;fill-opacity:1;stroke:#000000;stroke-width:0.02;stroke-linecap:butt;stroke-linejoin:miter;stroke-miterlimit:4;stroke-opacity:1;stroke-dasharray:none;stroke-dashoffset:0;marker:none;visibility:visible;display:inline;overflow:visible;enable-background:accumulate" />
  <path
     d="m 485.04331,1141.2283 c -5.17385,-1.111 -9.45855,-2.0716 -9.52156,-2.1346 -0.1106,-0.1106 10.04965,-48.2657 10.21941,-48.4355 0.17042,-0.1704 19.4099,4.0236 19.4099,4.2312 0,0.1157 -2.30114,11.0271 -5.11364,24.2475 -2.8125,13.2204 -5.11363,24.0612 -5.11363,24.0907 0,0.1132 -0.74261,-0.037 -9.88048,-1.9993 z"
     id="path3970"
     style="fill:#000000;fill-opacity:1;stroke:#000000;stroke-width:0.02;stroke-linecap:butt;stroke-linejoin:miter;stroke-miterlimit:4;stroke-opacity:1;stroke-dasharray:none;stroke-dashoffset:0;marker:none;visibility:visible;display:inline;overflow:visible;enable-background:accumulate" />
  <path
     d="m 541.38499,1150.214 -8.99621,-0.9713 0.0677,-0.8501 c 0.27272,-3.4263 5.08768,-48.3034 5.19398,-48.4097 0.0743,-0.074 4.56383,0.3244 9.97685,0.8859 9.52388,0.988 9.8392,1.0333 9.75974,1.4041 -0.0452,0.2108 -1.19615,11.1219 -2.55776,24.2469 -1.36161,13.125 -2.51624,24.0554 -2.56584,24.2897 -0.12061,0.5699 -0.0481,0.5739 -10.87843,-0.5955 z"
     id="path3972"
     style="fill:#000000;fill-opacity:1;stroke:#000000;stroke-width:0.02;stroke-linecap:butt;stroke-linejoin:miter;stroke-miterlimit:4;stroke-opacity:1;stroke-dasharray:none;stroke-dashoffset:0;marker:none;visibility:visible;display:inline;overflow:visible;enable-background:accumulate" />
  <path
     d="m 590.24863,1093.4705 0,-59.2803 9.84848,0 9.84849,0 0,59.2803 0,59.2803 -9.84849,0 -9.84848,0 0,-59.2803 z"
     id="path3974"
     style="fill:#000000;fill-opacity:1;stroke:#000000;stroke-width:0.02;stroke-linecap:butt;stroke-linejoin:miter;stroke-miterlimit:4;stroke-opacity:1;stroke-dasharray:none;stroke-dashoffset:0;marker:none;visibility:visible;display:inline;overflow:visible;enable-background:accumulate" />
  <path
     d="m 647.88766,1150.8095 c -0.0507,-0.2343 -1.20253,-11.0795 -2.5596,-24.1003 -1.35707,-13.0209 -2.51042,-23.9308 -2.56298,-24.2444 l -0.0956,-0.5701 9.84422,-1.0283 c 5.41433,-0.5655 9.9039,-0.9686 9.97683,-0.8956 0.098,0.098 4.84528,44.352 5.21486,48.6126 l 0.0574,0.6621 -9.27957,0.9849 c -5.10376,0.5416 -9.55493,0.9894 -9.89149,0.995 -0.48524,0.01 -0.63101,-0.078 -0.70412,-0.4159 l 0,0 z"
     id="path3976"
     style="fill:#000000;fill-opacity:1;stroke:#000000;stroke-width:0.02;stroke-linecap:butt;stroke-linejoin:miter;stroke-miterlimit:4;stroke-opacity:1;stroke-dasharray:none;stroke-dashoffset:0;marker:none;visibility:visible;display:inline;overflow:visible;enable-background:accumulate" />
  <path
     d="m 705.0969,1142.6795 c -0.0691,-0.3462 -2.38876,-11.2691 -5.15483,-24.2731 -2.76606,-13.0041 -5.00127,-23.6676 -4.96712,-23.6967 0.16807,-0.1432 19.31788,-4.1109 19.40768,-4.0211 0.16851,0.1685 10.31616,48.0966 10.23028,48.3183 -0.0431,0.1113 -4.24368,1.0837 -9.33467,2.1609 -5.09099,1.0773 -9.43621,1.9997 -9.65604,2.0499 -0.32886,0.075 -0.42194,-0.02 -0.5253,-0.5382 l 0,0 z"
     id="path3978"
     style="fill:#000000;fill-opacity:1;stroke:#000000;stroke-width:0.02;stroke-linecap:butt;stroke-linejoin:miter;stroke-miterlimit:4;stroke-opacity:1;stroke-dasharray:none;stroke-dashoffset:0;marker:none;visibility:visible;display:inline;overflow:visible;enable-background:accumulate" />
  <path
     d="m 761.31689,1129.0292 c -0.77432,-2.018 -15.18792,-46.855 -15.09051,-46.9427 0.35593,-0.3202 18.62486,-6.0926 18.77714,-5.933 0.19785,0.2075 15.38404,46.8971 15.28566,46.9954 -0.0788,0.079 -18.60697,6.1171 -18.76994,6.1171 -0.0613,0 -0.15239,-0.1066 -0.20235,-0.2368 z"
     id="path3980"
     style="fill:#000000;fill-opacity:1;stroke:#000000;stroke-width:0.02;stroke-linecap:butt;stroke-linejoin:miter;stroke-miterlimit:4;stroke-opacity:1;stroke-dasharray:none;stroke-dashoffset:0;marker:none;visibility:visible;display:inline;overflow:visible;enable-background:accumulate" />
  <path
     d="m 815.74439,1109.4179 c -0.0435,-0.073 -4.57237,-10.2324 -10.0641,-22.5762 -5.49174,-12.3437 -10.01331,-22.4909 -10.04795,-22.5492 -0.0771,-0.1299 18.07849,-8.214 18.1921,-8.1004 0.27287,0.2729 20.11989,45.1631 20.01497,45.2701 -0.0992,0.1011 -11.90619,5.4077 -17.2165,7.7378 -0.43966,0.1929 -0.83499,0.291 -0.87852,0.2179 l 0,0 z"
     id="path3982"
     style="fill:#000000;fill-opacity:1;stroke:#000000;stroke-width:0.02;stroke-linecap:butt;stroke-linejoin:miter;stroke-miterlimit:4;stroke-opacity:1;stroke-dasharray:none;stroke-dashoffset:0;marker:none;visibility:visible;display:inline;overflow:visible;enable-background:accumulate" />
  <path
     d="m 867.45173,1083.2077 c -0.15332,-0.2409 -13.33621,-23.0658 -29.29529,-50.722 -15.95908,-27.6563 -29.17587,-50.54782 -29.37064,-50.87013 l -0.35414,-0.58601 8.4463,-4.87587 c 4.64547,-2.68173 8.51631,-4.80439 8.60187,-4.71702 0.0856,0.0874 12.97289,22.36056 28.6385,49.49593 15.66561,27.1355 28.95351,50.1518 29.52865,51.1475 l 1.04572,1.8104 -8.33633,4.8184 c -4.58498,2.6502 -8.40147,4.845 -8.48109,4.8776 -0.0796,0.033 -0.27022,-0.138 -0.42355,-0.3788 z"
     id="path3984"
     style="fill:#000000;fill-opacity:1;stroke:#000000;stroke-width:0.02;stroke-linecap:butt;stroke-linejoin:miter;stroke-miterlimit:4;stroke-opacity:1;stroke-dasharray:none;stroke-dashoffset:0;marker:none;visibility:visible;display:inline;overflow:visible;enable-background:accumulate" />
  <path
     d="m 916.15711,1052.5192 c -0.71987,-0.9769 -22.43059,-30.8585 -26.40775,-36.3464 l -2.00833,-2.7712 7.85878,-5.7161 c 4.32232,-3.1439 7.96627,-5.7575 8.09766,-5.8079 0.14733,-0.057 5.8033,7.5685 14.75698,19.8945 7.98495,10.9924 14.51809,20.0239 14.51809,20.0701 0,0.077 -15.33471,11.2452 -15.85197,11.545 -0.1405,0.081 -0.50757,-0.2493 -0.96346,-0.868 z"
     id="path3986"
     style="fill:#000000;fill-opacity:1;stroke:#000000;stroke-width:0.02;stroke-linecap:butt;stroke-linejoin:miter;stroke-miterlimit:4;stroke-opacity:1;stroke-dasharray:none;stroke-dashoffset:0;marker:none;visibility:visible;display:inline;overflow:visible;enable-background:accumulate" />
  <path
     d="m 946.13542,999.79188 c -8.95833,-9.94901 -16.39528,-18.23951 -16.52654,-18.42333 -0.2132,-0.29857 0.54822,-1.04426 7.1366,-6.98915 l 7.37527,-6.65493 16.53764,18.36315 c 9.0957,10.09974 16.53763,18.43758 16.53763,18.52848 0,0.1787 -14.48732,13.2932 -14.66521,13.2756 -0.0591,-0.01 -7.43706,-8.1508 -16.39539,-18.09982 z"
     id="path3988"
     style="fill:#000000;fill-opacity:1;stroke:#000000;stroke-width:0.02;stroke-linecap:butt;stroke-linejoin:miter;stroke-miterlimit:4;stroke-opacity:1;stroke-dasharray:none;stroke-dashoffset:0;marker:none;visibility:visible;display:inline;overflow:visible;enable-background:accumulate" />
  <path
     d="m 985.79367,961.24993 c -10.05208,-9.06317 -18.30357,-16.55407 -18.33664,-16.64644 -0.0714,-0.19942 13.05901,-14.79536 13.24545,-14.72382 0.23609,0.0906 36.71882,33.00207 36.71942,33.12499 7e-4,0.14822 -13.0438,14.63684 -13.2237,14.68762 -0.07,0.0199 -8.35245,-7.37918 -18.40453,-16.44235 z"
     id="path3990"
     style="fill:#000000;fill-opacity:1;stroke:#000000;stroke-width:0.02;stroke-linecap:butt;stroke-linejoin:miter;stroke-miterlimit:4;stroke-opacity:1;stroke-dasharray:none;stroke-dashoffset:0;marker:none;visibility:visible;display:inline;overflow:visible;enable-background:accumulate" />
  <path
     d="m 1021.3881,918.93555 c -10.9832,-7.98041 -19.9694,-14.58927 -19.9694,-14.68634 0,-0.0971 2.5925,-3.75172 5.7611,-8.12143 l 5.761,-7.94495 0.989,0.70256 c 5.5048,3.91066 39.0856,28.38798 39.0913,28.49391 0.01,0.15191 -10.8308,15.17453 -11.348,15.72828 -0.2995,0.32065 -1.3309,-0.39991 -20.285,-14.17203 l 0,0 z"
     id="path3992"
     style="fill:#000000;fill-opacity:1;stroke:#000000;stroke-width:0.02;stroke-linecap:butt;stroke-linejoin:miter;stroke-miterlimit:4;stroke-opacity:1;stroke-dasharray:none;stroke-dashoffset:0;marker:none;visibility:visible;display:inline;overflow:visible;enable-background:accumulate" />
  <path
     d="m 1022.1573,855.51755 c -32.46571,-18.75696 -51.20899,-29.69037 -51.17083,-29.84918 0.0331,-0.13784 2.20642,-3.9724 4.82955,-8.52125 l 4.76932,-8.27063 0.56818,0.33999 c 0.3125,0.18699 23.28128,13.44452 51.04168,29.46116 27.7604,16.01665 50.589,29.2282 50.7303,29.359 0.2128,0.19711 -0.5623,1.66011 -4.5271,8.54432 -2.6312,4.56857 -4.8349,8.35794 -4.897,8.42082 -0.062,0.0629 -23.167,-13.20502 -51.3441,-29.48423 z"
     id="path3994"
     style="fill:#000000;fill-opacity:1;stroke:#000000;stroke-width:0.02;stroke-linecap:butt;stroke-linejoin:miter;stroke-miterlimit:4;stroke-opacity:1;stroke-dasharray:none;stroke-dashoffset:0;marker:none;visibility:visible;display:inline;overflow:visible;enable-background:accumulate" />
  <path
     d="m 1078.3215,824.36179 c -12.391,-5.52059 -22.5595,-10.06784 -22.5966,-10.10499 -0.1158,-0.11582 7.9649,-18.10041 8.1327,-18.10041 0.2062,0 44.9024,19.8816 45.0894,20.0565 0.1381,0.1291 -7.8126,18.20538 -8.0018,18.1927 -0.052,-0.003 -10.2328,-4.5232 -22.6237,-10.0438 l 0,0 z"
     id="path3996"
     style="fill:#000000;fill-opacity:1;stroke:#000000;stroke-width:0.02;stroke-linecap:butt;stroke-linejoin:miter;stroke-miterlimit:4;stroke-opacity:1;stroke-dasharray:none;stroke-dashoffset:0;marker:none;visibility:visible;display:inline;overflow:visible;enable-background:accumulate" />
  <path
     d="m 1099.0081,773.13905 c -12.8883,-4.18839 -23.4343,-7.70049 -23.4356,-7.80465 0,-0.2198 5.9742,-18.63818 6.0839,-18.74785 0.04,-0.0403 10.6397,3.36057 23.5542,7.55751 15.4908,5.0342 23.4953,7.72084 23.5233,7.89542 0.061,0.37873 -5.9183,18.60738 -6.1226,18.66604 -0.093,0.0268 -10.7149,-3.37809 -23.6032,-7.56647 l 0,0 z"
     id="path3998"
     style="fill:#000000;fill-opacity:1;stroke:#000000;stroke-width:0.02;stroke-linecap:butt;stroke-linejoin:miter;stroke-miterlimit:4;stroke-opacity:1;stroke-dasharray:none;stroke-dashoffset:0;marker:none;visibility:visible;display:inline;overflow:visible;enable-background:accumulate" />
  <path
     d="m 1114.4948,720.06881 c -13.2517,-2.82268 -24.151,-5.18913 -24.2207,-5.25878 -0.07,-0.0697 0.7976,-4.48067 1.9272,-9.80226 1.9454,-9.16457 2.0743,-9.67072 2.4404,-9.58261 0.2126,0.0512 11.1252,2.37064 24.2502,5.15439 13.125,2.78375 23.8872,5.07846 23.916,5.09935 0.077,0.0556 -3.92,18.88279 -4.0819,19.22893 -0.118,0.2523 -3.4931,-0.4217 -24.2312,-4.83902 l 0,0 z"
     id="path4000"
     style="fill:#000000;fill-opacity:1;stroke:#000000;stroke-width:0.02;stroke-linecap:butt;stroke-linejoin:miter;stroke-miterlimit:4;stroke-opacity:1;stroke-dasharray:none;stroke-dashoffset:0;marker:none;visibility:visible;display:inline;overflow:visible;enable-background:accumulate" />
  <path
     d="m 73.572334,555.24659 c -13.333333,-1.40854 -24.263759,-2.57724 -24.289835,-2.59713 -0.08158,-0.0622 2.020914,-19.65473 2.119773,-19.75359 0.09541,-0.0954 49.177158,5.02644 49.294808,5.14408 0.0584,0.0584 -1.684907,17.10704 -1.943703,19.00846 -0.09233,0.67837 -0.174734,0.80133 -0.524087,0.78204 -0.227992,-0.0126 -11.323623,-1.17532 -24.656956,-2.58386 z"
     id="path4002"
     style="fill:#000000;fill-opacity:1;stroke:#000000;stroke-width:0.02;stroke-linecap:butt;stroke-linejoin:miter;stroke-miterlimit:4;stroke-opacity:1;stroke-dasharray:none;stroke-dashoffset:0;marker:none;visibility:visible;display:inline;overflow:visible;enable-background:accumulate" />
  <path
     d="m 81.716273,500.55464 c -12.8125,-2.73898 -23.556456,-5.03063 -23.875459,-5.09255 l -0.580004,-0.11259 2.065752,-9.70452 c 1.136164,-5.33749 2.091461,-9.7312 2.122883,-9.76381 0.05057,-0.0525 48.426545,10.18523 48.526435,10.26956 0.0435,0.0367 -3.87035,18.55706 -4.036,19.09844 -0.0596,0.19468 -0.27197,0.32195 -0.51478,0.30844 -0.22735,-0.0127 -10.896327,-2.26399 -23.708827,-5.00297 z"
     id="path4004"
     style="fill:#000000;fill-opacity:1;stroke:#000000;stroke-width:0.02;stroke-linecap:butt;stroke-linejoin:miter;stroke-miterlimit:4;stroke-opacity:1;stroke-dasharray:none;stroke-dashoffset:0;marker:none;visibility:visible;display:inline;overflow:visible;enable-background:accumulate" />
  <path
     d="m 94.804483,446.84921 c -17.3866,-5.64806 -23.433322,-7.68599 -23.430329,-7.89677 0.0022,-0.15625 1.355242,-4.41761 3.006719,-9.46969 2.065367,-6.31823 3.082969,-9.17859 3.259874,-9.16311 0.411687,0.036 46.641963,15.07659 46.818273,15.23187 0.0878,0.0773 -0.26703,1.4494 -0.78844,3.04914 -0.52141,1.59974 -1.89726,5.82764 -3.05744,9.39535 -1.16018,3.56771 -2.16901,6.48205 -2.24185,6.47631 -0.0729,-0.006 -10.67791,-3.43613 -23.566807,-7.6231 l 0,0 z"
     id="path4006"
     style="fill:#000000;fill-opacity:1;stroke:#000000;stroke-width:0.02;stroke-linecap:butt;stroke-linejoin:miter;stroke-miterlimit:4;stroke-opacity:1;stroke-dasharray:none;stroke-dashoffset:0;marker:none;visibility:visible;display:inline;overflow:visible;enable-background:accumulate" />
  <path
     d="m 113.69339,394.89209 c -12.29166,-5.47399 -22.414801,-10.01524 -22.495855,-10.09166 -0.110385,-0.10407 7.619071,-17.83953 7.91585,-18.16315 0.05101,-0.0556 45.162415,19.9746 45.303195,20.11537 0.13208,0.13208 -7.98413,18.1083 -8.17233,18.10052 -0.11131,-0.005 -10.25919,-4.48709 -22.55086,-9.96108 z"
     id="path4008"
     style="fill:#000000;fill-opacity:1;stroke:#000000;stroke-width:0.02;stroke-linecap:butt;stroke-linejoin:miter;stroke-miterlimit:4;stroke-opacity:1;stroke-dasharray:none;stroke-dashoffset:0;marker:none;visibility:visible;display:inline;overflow:visible;enable-background:accumulate" />
  <path
     d="m 168.33668,364.37417 c -27.65453,-15.97123 -50.30144,-29.10676 -50.32648,-29.19006 -0.0889,-0.2959 9.38288,-16.43917 9.63425,-16.42011 0.24574,0.0186 100.32234,57.73303 100.56237,57.99454 0.10854,0.11825 -9.0674,16.18084 -9.43295,16.51248 -0.0859,0.078 -22.78267,-12.92562 -50.43719,-28.89685 l 0,0 z"
     id="path4010"
     style="fill:#000000;fill-opacity:1;stroke:#000000;stroke-width:0.02;stroke-linecap:butt;stroke-linejoin:miter;stroke-miterlimit:4;stroke-opacity:1;stroke-dasharray:none;stroke-dashoffset:0;marker:none;visibility:visible;display:inline;overflow:visible;enable-background:accumulate" />
  <path
     d="m 167.10248,298.27685 c -10.9375,-7.95917 -19.87644,-14.5885 -19.8643,-14.73184 0.0121,-0.14334 2.59958,-3.81202 5.74988,-8.15263 l 5.72783,-7.89201 0.59481,0.45019 c 0.32715,0.24761 9.20277,6.6948 19.7236,14.3271 10.52083,7.6323 19.2782,14.01915 19.46081,14.19301 0.31398,0.29892 0.0189,0.74769 -5.43211,8.26048 -3.17027,4.36941 -5.83388,7.9607 -5.91914,7.98065 -0.0853,0.0199 -9.10388,-6.47579 -20.04138,-14.43495 z"
     id="path4012"
     style="fill:#000000;fill-opacity:1;stroke:#000000;stroke-width:0.02;stroke-linecap:butt;stroke-linejoin:miter;stroke-miterlimit:4;stroke-opacity:1;stroke-dasharray:none;stroke-dashoffset:0;marker:none;visibility:visible;display:inline;overflow:visible;enable-background:accumulate" />
  <path
     d="m 201.15391,254.73851 c -10.08613,-9.08557 -18.37953,-16.57492 -18.42977,-16.64299 -0.10104,-0.13688 13.00775,-14.74366 13.23163,-14.74366 0.18264,0 36.772,32.95061 36.77079,33.114 -5.6e-4,0.0685 -2.97841,3.42477 -6.61757,7.45826 l -6.61665,7.33362 -18.33843,-16.51923 0,0 z"
     id="path4014"
     style="fill:#000000;fill-opacity:1;stroke:#000000;stroke-width:0.02;stroke-linecap:butt;stroke-linejoin:miter;stroke-miterlimit:4;stroke-opacity:1;stroke-dasharray:none;stroke-dashoffset:0;marker:none;visibility:visible;display:inline;overflow:visible;enable-background:accumulate" />
  <path
     d="m 239.76923,215.25682 c -8.88721,-9.86894 -16.34316,-18.16109 -16.56879,-18.427 l -0.41022,-0.48346 7.3231,-6.58366 c 4.02771,-3.62101 7.40833,-6.55957 7.5125,-6.53012 0.2344,0.0663 33.04924,36.50795 33.04924,36.702 0,0.14206 -14.50488,13.26576 -14.6619,13.26576 -0.047,0 -7.35673,-8.07458 -16.24393,-17.94352 z"
     id="path4016"
     style="fill:#000000;fill-opacity:1;stroke:#000000;stroke-width:0.02;stroke-linecap:butt;stroke-linejoin:miter;stroke-miterlimit:4;stroke-opacity:1;stroke-dasharray:none;stroke-dashoffset:0;marker:none;visibility:visible;display:inline;overflow:visible;enable-background:accumulate" />
  <path
     d="m 282.1334,179.89732 c -7.70834,-10.63075 -14.2478,-19.6477 -14.53215,-20.03767 l -0.517,-0.70902 7.87774,-5.72359 c 4.33276,-3.14798 7.97859,-5.7623 8.10185,-5.8096 0.12766,-0.049 6.4562,8.48911 14.70365,19.8373 7.96375,10.95782 14.50401,19.9826 14.53392,20.05508 0.0556,0.13465 -15.4734,11.49112 -15.91149,11.63621 -0.14534,0.0481 -5.81712,-7.60972 -14.25652,-19.24871 z"
     id="path4018"
     style="fill:#000000;fill-opacity:1;stroke:#000000;stroke-width:0.02;stroke-linecap:butt;stroke-linejoin:miter;stroke-miterlimit:4;stroke-opacity:1;stroke-dasharray:none;stroke-dashoffset:0;marker:none;visibility:visible;display:inline;overflow:visible;enable-background:accumulate" />
  <path
     d="m 374.45601,229.31965 c -0.15095,-0.23779 -13.33185,-23.06019 -29.29088,-50.71644 -15.95903,-27.65625 -29.17823,-50.5512 -29.37601,-50.87768 l -0.3596,-0.59358 8.44407,-4.87522 c 4.79595,-2.76896 8.51471,-4.80359 8.60757,-4.70944 0.13364,0.13549 14.29928,24.64272 56.80467,98.27479 l 2.40699,4.16963 -7.38326,4.2584 c -4.0608,2.34213 -7.87733,4.53819 -8.48118,4.88015 l -1.09791,0.62174 -0.27446,-0.43235 z"
     id="path4020"
     style="fill:#000000;fill-opacity:1;stroke:#000000;stroke-width:0.02;stroke-linecap:butt;stroke-linejoin:miter;stroke-miterlimit:4;stroke-opacity:1;stroke-dasharray:none;stroke-dashoffset:0;marker:none;visibility:visible;display:inline;overflow:visible;enable-background:accumulate" />
  <path
     d="m 385.89434,144.00589 c -0.22152,-0.50272 -4.75694,-10.69655 -10.07871,-22.65296 -5.32178,-11.95641 -9.64313,-21.770186 -9.60301,-21.808399 0.29148,-0.277611 18.07621,-8.028293 18.16984,-7.918512 0.14302,0.1677 19.88639,44.517821 20.0073,44.942991 0.0652,0.2292 -1.90167,1.17786 -8.78283,4.23617 -4.87675,2.16745 -8.96649,3.97995 -9.08832,4.02778 -0.12442,0.0488 -0.39803,-0.31365 -0.62427,-0.82707 l 0,0 z"
     id="path4022"
     style="fill:#000000;fill-opacity:1;stroke:#000000;stroke-width:0.02;stroke-linecap:butt;stroke-linejoin:miter;stroke-miterlimit:4;stroke-opacity:1;stroke-dasharray:none;stroke-dashoffset:0;marker:none;visibility:visible;display:inline;overflow:visible;enable-background:accumulate" />
  <path
     d="m 435.06672,124.86268 c -0.30444,-0.50341 -15.24517,-46.93115 -15.133,-47.025191 0.36366,-0.30488 18.65046,-6.081982 18.78692,-5.935097 0.2026,0.218089 15.35457,46.909918 15.25504,47.009448 -0.0893,0.0893 -18.49901,6.08832 -18.69219,6.09104 -0.072,9.5e-4 -0.16953,-0.0621 -0.21677,-0.1402 z"
     id="path4024"
     style="fill:#000000;fill-opacity:1;stroke:#000000;stroke-width:0.02;stroke-linecap:butt;stroke-linejoin:miter;stroke-miterlimit:4;stroke-opacity:1;stroke-dasharray:none;stroke-dashoffset:0;marker:none;visibility:visible;display:inline;overflow:visible;enable-background:accumulate" />
  <path
     d="m 485.62887,110.08996 c -0.20206,-0.70421 -10.1577,-47.741533 -10.1577,-47.991993 0,-0.196871 2.48736,-0.793527 9.6681,-2.319141 5.31745,-1.129741 9.69719,-2.022614 9.73275,-1.984162 0.1798,0.194396 10.30466,48.373216 10.18723,48.475566 -0.11317,0.0986 -18.88386,4.15117 -19.22753,4.15117 -0.0593,0 -0.15054,-0.14915 -0.20285,-0.33144 z"
     id="path4026"
     style="fill:#000000;fill-opacity:1;stroke:#000000;stroke-width:0.02;stroke-linecap:butt;stroke-linejoin:miter;stroke-miterlimit:4;stroke-opacity:1;stroke-dasharray:none;stroke-dashoffset:0;marker:none;visibility:visible;display:inline;overflow:visible;enable-background:accumulate" />
  <path
     d="m 537.49192,100.52556 c -0.22949,-1.370548 -5.12351,-48.619016 -5.04393,-48.695723 0.0685,-0.06606 17.04959,-1.891375 19.20505,-2.064371 l 0.55855,-0.04483 2.59505,24.621213 c 1.42728,13.541666 2.55922,24.658378 2.51543,24.703804 -0.0781,0.08096 -18.52607,2.075037 -19.32203,2.088557 -0.31164,0.005 -0.42883,-0.13507 -0.50812,-0.60865 l 0,0 z"
     id="path4028"
     style="fill:#000000;fill-opacity:1;stroke:#000000;stroke-width:0.02;stroke-linecap:butt;stroke-linejoin:miter;stroke-miterlimit:4;stroke-opacity:1;stroke-dasharray:none;stroke-dashoffset:0;marker:none;visibility:visible;display:inline;overflow:visible;enable-background:accumulate" />
</svg>
