<?xml version="1.0" encoding="UTF-8" standalone="no"?>
<!-- Created with Inkscape (http://www.inkscape.org/) -->

<svg
   xmlns:dc="http://purl.org/dc/elements/1.1/"
   xmlns:cc="http://creativecommons.org/ns#"
   xmlns:rdf="http://www.w3.org/1999/02/22-rdf-syntax-ns#"
   xmlns:svg="http://www.w3.org/2000/svg"
   xmlns="http://www.w3.org/2000/svg"
   version="1.1"
   width="118.68005"
   height="118.65031"
   viewBox="0 0 118.68005 118.65031"
   id="svg4048">
  <defs
     id="defs4050" />
  <metadata
     id="metadata4053">
    <rdf:RDF>
      <cc:Work
         rdf:about="">
        <dc:format>image/svg+xml</dc:format>
        <dc:type
           rdf:resource="http://purl.org/dc/dcmitype/StillImage" />
        <dc:title></dc:title>
      </cc:Work>
    </rdf:RDF>
  </metadata>
  <g
     transform="translate(-539.74471,-539.75957)"
     id="layer1"
     style="display:inline;fill:#000000;fill-opacity:1;stroke:#000000;stroke-width:0.002;stroke-linecap:butt;stroke-linejoin:miter;stroke-miterlimit:4;stroke-opacity:1;stroke-dasharray:none;stroke-dashoffset:0;marker:none;visibility:visible;display:inline;overflow:visible;enable-background:accumulate">
    <path
       d="m 594.09555,658.31742 c -3.79421,-0.36507 -7.98316,-1.15544 -11.51374,-2.1724 -13.7783,-3.96874 -25.86964,-13.05016 -33.64673,-25.27097 -1.32963,-2.08937 -4.13972,-7.54488 -4.90526,-9.5231 -3.23398,-8.35679 -4.58181,-16.25615 -4.23097,-24.79684 0.88183,-21.46654 13.47443,-40.87392 32.80169,-50.55307 12.87142,-6.44605 27.6785,-7.95888 41.69384,-4.25983 12.45392,3.28695 23.70246,10.72126 31.62777,20.9032 6.71893,8.63205 10.80971,18.6455 12.19168,29.8429 0.41417,3.35578 0.41465,9.99661 10e-4,13.31669 -1.35277,10.85724 -5.32555,20.74776 -11.72217,29.18332 -1.68325,2.21979 -2.84551,3.54791 -5.149,5.88379 -8.3762,8.494 -18.90296,14.14631 -30.78002,16.52725 -3.61647,0.72498 -6.03726,0.95397 -10.60606,1.00327 -2.41667,0.0261 -5.00954,-0.0118 -5.76194,-0.0842 z m 12.12557,-2.03427 c 7.21786,-1.01911 12.7084,-2.70354 18.78788,-5.7639 16.41455,-8.26294 27.77272,-23.68343 30.81902,-41.84166 0.59772,-3.56288 0.69549,-4.90584 0.69332,-9.52361 -0.002,-5.09756 -0.17557,-6.94154 -1.06727,-11.36364 -1.5081,-7.47899 -4.37113,-14.34297 -8.62612,-20.68068 -8.24822,-12.28552 -20.94312,-20.92278 -35.37955,-24.07127 -10.82831,-2.36158 -22.49495,-1.5025 -32.77612,2.41348 -2.43848,0.92879 -6.89075,3.08449 -9.04206,4.37799 -7.56322,4.54746 -13.75569,10.49031 -18.55532,17.80733 -5.07276,7.73342 -7.97134,15.80287 -9.11676,25.38043 -0.3193,2.66992 -0.36478,9.06588 -0.083,11.66666 1.41407,13.04942 6.54815,24.44168 15.20089,33.73003 9.84957,10.57309 22.81135,16.81093 37.70566,18.14578 1.64849,0.14774 9.83531,-0.0505 11.43939,-0.27694 l 0,0 z"
       id="path3882-7"
     />
    <path
       d=""
       id="path3918-6"
    />
  </g>

<g
     transform="translate(-539.74471,-539.75957)"
     id="layer2"
      style="display:inline;fill:#000000;fill-opacity:1;stroke:#000000;stroke-width:0.002;stroke-linecap:butt;stroke-linejoin:miter;stroke-miterlimit:4;stroke-opacity:1;stroke-dasharray:none;stroke-dashoffset:0;marker:none;visibility:visible;display:inline;overflow:visible;enable-background:accumulate">
    <path
       d="m 604.25754,549.24261 c -0.4456,-0.0492 -0.81538,-0.0946 -0.82173,-0.10098 -0.0126,-0.0126 0.4759,-4.69944 0.49138,-4.71493 0.0112,-0.0112 1.85548,0.18254 1.87072,0.19656 0.01,0.009 -0.41325,4.10515 -0.4682,4.53727 -0.0274,0.21562 0.07,0.20816 -1.07217,0.0821 l 0,0 z"
       id="path3846-7"
        />
    <path
       d="m 609.55003,549.97025 c -0.49306,-0.1068 -0.90825,-0.20597 -0.92264,-0.22036 -0.0144,-0.0144 0.20152,-1.10093 0.47981,-2.41452 0.41337,-1.95117 0.51707,-2.38837 0.56654,-2.38859 0.0549,0 1.86611,0.3781 1.87507,0.39169 0.022,0.0334 -1.03501,4.8341 -1.0636,4.83064 -0.0213,-0.003 -0.44211,-0.0921 -0.93518,-0.19886 l 0,0 z"
       id="path3848-4"
       />
    <path
       d="m 614.61318,551.32242 c -0.47917,-0.1568 -0.87731,-0.29087 -0.88475,-0.29795 -0.0144,-0.0137 1.46375,-4.59179 1.50456,-4.65983 0.031,-0.0516 1.86196,0.54211 1.85949,0.60298 -10e-4,0.0238 -0.33805,1.0744 -0.74909,2.33463 -0.51953,1.59288 -0.76436,2.29346 -0.80317,2.2983 -0.0307,0.004 -0.44787,-0.12133 -0.92704,-0.27813 z"
       id="path3850-0"
       />
    <path
       d="m 619.57676,553.22323 c -0.47418,-0.21237 -0.87152,-0.39549 -0.88297,-0.40694 -0.0166,-0.0166 1.92852,-4.43814 1.97748,-4.49514 0.0111,-0.0129 1.74736,0.74003 1.78851,0.77556 0.0157,0.0136 -1.95939,4.45678 -1.99588,4.48993 -0.0137,0.0125 -0.41295,-0.15105 -0.88714,-0.36341 l 0,0 z"
       id="path3852-9"
       />
    <path
       d="m 628.67755,558.47825 c -0.42708,-0.31246 -0.77244,-0.5827 -0.76746,-0.60054 0.0246,-0.0882 2.86495,-3.95384 2.89808,-3.94424 0.0212,0.006 0.38316,0.2618 0.80446,0.56818 l 0.76601,0.55705 -0.19519,0.26515 c -0.10736,0.14583 -0.73821,1.01515 -1.40189,1.93182 -0.66368,0.91667 -1.23388,1.69457 -1.26709,1.72868 -0.0557,0.0572 -0.1209,0.0178 -0.83692,-0.5061 z"
       id="path3856-8"
        />
    <path
       d="m 632.76175,561.79064 c -0.3891,-0.3484 -0.70861,-0.64198 -0.71,-0.6524 -0.003,-0.0217 2.95998,-3.3184 3.17176,-3.52908 l 0.13965,-0.13893 0.70076,0.63539 c 0.38541,0.34947 0.70075,0.65381 0.70075,0.67632 0,0.0467 -3.2285,3.64472 -3.269,3.64316 -0.0145,-0.001 -0.34481,-0.28607 -0.73392,-0.63446 l 0,0 z"
       id="path3858-8"
       />
    <path
       d="m 636.51216,565.53623 c -0.34722,-0.38764 -0.63389,-0.72185 -0.63706,-0.74268 -0.003,-0.0208 0.80933,-0.77439 1.80555,-1.67457 l 1.8113,-1.63669 0.20833,0.21823 c 0.11459,0.12003 0.41497,0.44789 0.66752,0.72857 l 0.45918,0.51033 -1.70048,1.53313 c -0.93527,0.84321 -1.76406,1.58608 -1.84176,1.6508 l -0.14128,0.11769 -0.6313,-0.70481 z"
       id="path3862-4"
        />
    <path
       d="m 639.8291,569.62135 c -0.29463,-0.41399 -0.53569,-0.77228 -0.53569,-0.7962 0,-0.0583 3.89755,-2.8897 3.94091,-2.8629 0.10752,0.0664 1.12579,1.54043 1.08736,1.57399 -0.1011,0.0883 -3.92011,2.84302 -3.93788,2.84051 -0.0105,-10e-4 -0.26007,-0.34141 -0.5547,-0.7554 z"
       id="path3864-5"
       />
    <path
       d="m 645.32035,579.25467 c -0.0868,-0.19156 -0.26629,-0.59271 -0.39874,-0.89144 l -0.24082,-0.54315 0.22581,-0.0978 c 0.12419,-0.0538 1.10566,-0.48928 2.18106,-0.96778 1.07539,-0.47851 1.98568,-0.88194 2.02286,-0.89652 0.0679,-0.0266 0.11623,0.0673 0.62197,1.20796 l 0.23749,0.53564 -2.19716,0.98244 c -1.20844,0.54033 -2.21907,0.99064 -2.24585,1.00067 -0.0268,0.01 -0.11976,-0.13848 -0.20662,-0.33004 z"
       id="path3868-1"
       />
    <path
       d="m 646.96553,583.64386 c -0.21418,-0.65432 -0.28171,-0.92577 -0.23621,-0.94965 0.11157,-0.0585 4.60003,-1.50211 4.61491,-1.48424 0.0378,0.0454 0.56461,1.68859 0.56461,1.76123 0,0.0768 -1.37525,0.55188 -4.10285,1.41736 l -0.54053,0.17152 -0.29993,-0.91622 z"
       id="path3870-7"
       />
    <path
       d="m 648.51427,589.57042 c -0.0625,-0.21746 -0.35524,-1.63325 -0.35524,-1.71827 0,-0.0791 0.35264,-0.16733 2.38289,-0.59658 1.31059,-0.27709 2.39104,-0.49334 2.401,-0.48056 0.0365,0.0469 0.40272,1.84519 0.38029,1.86762 -0.0216,0.0216 -4.66509,1.02103 -4.74541,1.02138 -0.0201,9e-5 -0.0487,-0.042 -0.0635,-0.0936 z"
       id="path3872-1"
        />
    <path
       d="m 649.15271,593.94891 c -0.0533,-0.53094 -0.0877,-0.9733 -0.0765,-0.98302 0.0394,-0.0343 4.82556,-0.52101 4.85303,-0.49354 0.0345,0.0345 0.23254,1.86928 0.20479,1.89703 -0.011,0.011 -1.02845,0.12556 -2.26094,0.25452 -1.23248,0.12895 -2.32697,0.24704 -2.43218,0.26241 l -0.19131,0.0279 -0.0969,-0.96534 z"
       id="path3876-1"
       />
    <path
       d="m 651.49355,605.68668 c -1.3038,-0.13947 -2.38542,-0.26845 -2.40359,-0.28662 -0.0297,-0.0297 0.13425,-1.86066 0.17047,-1.90428 0.0142,-0.0171 4.85636,0.47804 4.88528,0.49959 0.0138,0.0103 -0.11799,1.29926 -0.17668,1.72816 -0.0171,0.12522 -0.0477,0.22521 -0.068,0.2222 -0.0203,-0.003 -1.10364,-0.11958 -2.40744,-0.25905 z"
       id="path3880-2"
       />
    <path
       d="m 544.2213,605.94373 c -0.0171,-0.0565 -0.20378,-1.94922 -0.19328,-1.95972 0.006,-0.006 1.08766,-0.12466 2.40289,-0.26291 1.31523,-0.13824 2.42173,-0.25522 2.45887,-0.25996 l 0.0675,-0.009 0.10405,0.98732 c 0.0924,0.87713 0.10076,0.98872 0.0745,0.99989 -0.0163,0.007 -1.10768,0.12434 -2.42539,0.26095 -1.31771,0.1366 -2.4152,0.2526 -2.43887,0.25777 -0.0254,0.006 -0.046,-10e-4 -0.0503,-0.0147 z"
       id="path3946-4"
       />
    <path
       d="m 545.22514,611.62745 c -0.0152,-0.0455 -0.40863,-1.91682 -0.40377,-1.92058 0.0103,-0.008 4.84942,-1.03214 4.85386,-1.02731 0.0162,0.0176 0.41065,1.92967 0.4002,1.94013 -0.0113,0.0113 -4.58936,0.99215 -4.77087,1.02213 -0.0512,0.008 -0.0731,0.004 -0.0794,-0.0144 l 0,0 z"
       id="path3948-2"
       />
    <path
       d="m 546.80766,617.15612 c -0.0109,-0.0343 -0.14817,-0.45806 -0.30496,-0.9418 -0.15679,-0.48373 -0.27858,-0.88506 -0.27064,-0.89184 0.0162,-0.0139 4.61502,-1.50767 4.6723,-1.51769 0.0327,-0.006 0.0701,0.096 0.34277,0.93109 0.16835,0.51562 0.301,0.94258 0.29477,0.94878 -0.009,0.008 -4.44909,1.4541 -4.67344,1.52147 -0.034,0.0102 -0.0442,0.002 -0.0608,-0.05 l 0,0 z"
       id="path3950-3"
       />
    <path
       d="m 548.98662,622.54512 c -0.0102,-0.019 -0.17389,-0.38405 -0.36388,-0.81113 -0.18998,-0.42708 -0.36507,-0.82038 -0.38909,-0.87399 l -0.0437,-0.0975 2.2639,-1.00778 c 1.24515,-0.55428 2.27058,-1.00047 2.27875,-0.99154 0.0395,0.0432 0.79933,1.7912 0.78453,1.80481 -0.0134,0.0124 -4.38315,1.96224 -4.48482,2.00125 -0.0152,0.006 -0.0354,-0.005 -0.0457,-0.0241 z"
       id="path3952-2"
       />
    <path
       d="m 554.37513,631.6821 c -0.54548,-0.75154 -0.57865,-0.80186 -0.54783,-0.83089 0.0181,-0.017 0.89361,-0.65553 1.9457,-1.41896 1.05208,-0.76344 1.9396,-1.40827 1.97227,-1.43297 l 0.0594,-0.0449 0.57981,0.79708 c 0.31889,0.43839 0.57981,0.804 0.57981,0.81246 0,0.0134 -3.98318,2.91818 -4.00154,2.91818 -0.004,0 -0.26827,-0.36 -0.58762,-0.8 z"
       id="path3956-1"
       />
    <path
       d="m 558.01732,636.1821 c -0.35938,-0.40094 -0.65341,-0.73534 -0.65341,-0.74309 0,-0.013 3.61581,-3.27703 3.66143,-3.30523 0.0114,-0.007 0.28119,0.27788 0.62074,0.65561 0.3303,0.36745 0.62956,0.69878 0.66502,0.7363 l 0.0645,0.0682 -1.83786,1.65515 c -1.01082,0.91033 -1.84441,1.6567 -1.85243,1.6586 -0.008,0.002 -0.3086,-0.3246 -0.66797,-0.72555 z"
       id="path3958-6"
       />
    <path
       d="m 562.12198,640.28542 c -0.39062,-0.35276 -0.71794,-0.65361 -0.72738,-0.66855 -0.0129,-0.0205 0.38341,-0.47226 1.61722,-1.84327 0.89891,-0.99887 1.64386,-1.82649 1.65545,-1.83916 0.0161,-0.0176 0.19422,0.13274 0.75184,0.63447 0.40192,0.36162 0.73429,0.66346 0.7386,0.67075 0.008,0.014 -3.29512,3.6902 -3.31429,3.68828 -0.006,-0.001 -0.33081,-0.28975 -0.72144,-0.64252 z"
       id="path3960-8"
       />
    <path
       d="m 566.60958,643.91606 c -0.43286,-0.31472 -0.79081,-0.57866 -0.79545,-0.58652 -0.01,-0.0169 2.882,-4.00854 2.90495,-4.0096 0.0163,-10e-4 1.51181,1.07946 1.57116,1.13486 0.0321,0.0299 -0.04,0.13311 -1.41631,2.02847 -0.79756,1.09831 -1.45624,1.99875 -1.46372,2.00097 -0.008,0.002 -0.36776,-0.25346 -0.80063,-0.56818 l 0,0 z"
       id="path3962-5"
       />
    <path
       d="m 576.61216,649.68939 c -0.63337,-0.28282 -0.89787,-0.40966 -0.8937,-0.42856 0.007,-0.0301 1.98987,-4.49107 2.00198,-4.50318 0.004,-0.004 0.41635,0.17387 0.91581,0.39579 l 0.9081,0.40349 -0.0428,0.0961 c -0.0235,0.0529 -0.47527,1.0677 -1.00386,2.2552 -0.52859,1.1875 -0.96666,2.16444 -0.97349,2.17099 -0.007,0.007 -0.41726,-0.16888 -0.91205,-0.38983 z"
       id="path3966-6"
       />
    <path
       d="m 582.0016,651.7609 c -0.50977,-0.16628 -0.92888,-0.30436 -0.93135,-0.30683 -0.005,-0.005 1.5245,-4.71595 1.53209,-4.72072 0.002,-10e-4 0.42601,0.13475 0.94164,0.30263 0.69213,0.22535 0.9375,0.31277 0.9375,0.33402 0,0.0573 -1.51566,4.69507 -1.53409,4.69417 -0.0104,-10e-4 -0.43603,-0.13698 -0.94579,-0.30327 z"
       id="path3968-1"
       />
    <path
       d="m 587.59381,653.26166 c -0.51739,-0.1111 -0.94586,-0.20716 -0.95216,-0.21346 -0.0111,-0.0111 1.00497,-4.82657 1.02194,-4.84355 0.0171,-0.017 1.94099,0.40236 1.94099,0.42312 0,0.0116 -0.23011,1.10271 -0.51136,2.42475 -0.28125,1.32204 -0.51136,2.40612 -0.51136,2.40907 0,0.0113 -0.0743,-0.004 -0.98805,-0.19993 z"
       id="path3970-8"
       />
    <path
       d="m 593.22798,654.16023 -0.89962,-0.0971 0.007,-0.085 c 0.0273,-0.34263 0.50876,-4.83034 0.51939,-4.84097 0.007,-0.007 0.45639,0.0324 0.99769,0.0886 0.95239,0.0988 0.98392,0.10333 0.97597,0.14041 -0.005,0.0211 -0.11961,1.11219 -0.25577,2.42469 -0.13616,1.3125 -0.25163,2.40554 -0.25659,2.42897 -0.0121,0.057 -0.005,0.0574 -1.08784,-0.0596 z"
       id="path3972-9"
       />
    <path
       d="m 609.59917,653.40678 c -0.007,-0.0346 -0.23888,-1.12691 -0.51548,-2.42731 -0.27661,-1.30041 -0.50013,-2.36676 -0.49672,-2.36967 0.0168,-0.0143 1.93179,-0.41109 1.94077,-0.40211 0.0168,0.0169 1.03162,4.80966 1.02303,4.83183 -0.004,0.0111 -0.42437,0.10837 -0.93347,0.21609 -0.5091,0.10773 -0.94362,0.19997 -0.9656,0.20499 -0.0329,0.008 -0.0422,-0.002 -0.0525,-0.0538 l 0,0 z"
       id="path3978-9"
       />
    <path
       d="m 615.22117,652.04175 c -0.0774,-0.2018 -1.51879,-4.6855 -1.50905,-4.69427 0.0356,-0.032 1.86248,-0.60926 1.87771,-0.5933 0.0198,0.0208 1.5384,4.68971 1.52857,4.69954 -0.008,0.008 -1.8607,0.61171 -1.877,0.61171 -0.006,0 -0.0152,-0.0107 -0.0202,-0.0237 z"
       id="path3980-5"
       />
    <path
       d="m 620.66392,650.08062 c -0.004,-0.007 -0.45724,-1.02324 -1.00641,-2.25762 -0.54918,-1.23437 -1.00133,-2.24909 -1.0048,-2.25492 -0.008,-0.013 1.80785,-0.8214 1.81921,-0.81004 0.0273,0.0273 2.01199,4.51631 2.0015,4.52701 -0.01,0.0101 -1.19062,0.54077 -1.72165,0.77378 -0.044,0.0193 -0.0835,0.0291 -0.0879,0.0218 l 0,0 z"
       id="path3982-4"
       />
    <path
       d="m 630.70519,644.39075 c -0.072,-0.0977 -2.24306,-3.08585 -2.64078,-3.63464 l -0.20083,-0.27712 0.78588,-0.57161 c 0.43223,-0.31439 0.79663,-0.57575 0.80977,-0.58079 0.0147,-0.006 0.58033,0.75685 1.47569,1.98945 0.7985,1.09924 1.45181,2.00239 1.45181,2.00701 0,0.008 -1.53347,1.12452 -1.58519,1.1545 -0.014,0.008 -0.0508,-0.0249 -0.0964,-0.0868 z"
       id="path3986-1"
       />
    <path
       d="m 633.70302,639.11802 c -0.89583,-0.9949 -1.63953,-1.82395 -1.65265,-1.84233 -0.0213,-0.0299 0.0548,-0.10443 0.71366,-0.69892 l 0.73752,-0.66549 1.65377,1.83631 c 0.90957,1.00998 1.65376,1.84376 1.65376,1.85285 0,0.0179 -1.44873,1.32932 -1.46652,1.32756 -0.006,-10e-4 -0.74371,-0.81508 -1.63954,-1.80998 z"
       id="path3988-2"
       />
    <path
       d="m 637.66885,635.26382 c -1.00521,-0.90631 -1.83036,-1.6554 -1.83367,-1.66464 -0.007,-0.0199 1.3059,-1.47954 1.32455,-1.47238 0.0236,0.009 3.67188,3.3002 3.67194,3.3125 7e-5,0.0148 -1.30438,1.46368 -1.32237,1.46876 -0.007,0.002 -0.83525,-0.73792 -1.84045,-1.64424 z"
       id="path3990-3"
       />
    <path
       d="m 641.22829,631.03239 c -1.09832,-0.79805 -1.99694,-1.45893 -1.99694,-1.46864 0,-0.01 0.25925,-0.37517 0.57611,-0.81214 l 0.5761,-0.7945 0.0989,0.0703 c 0.55048,0.39107 3.90856,2.8388 3.90913,2.84939 0.001,0.0152 -1.08308,1.51745 -1.1348,1.57283 -0.0299,0.0321 -0.13309,-0.04 -2.0285,-1.4172 l 0,0 z"
       id="path3992-3"
       />
    <path
       d="m 646.92163,621.57501 c -1.2391,-0.55206 -2.25595,-1.00678 -2.25966,-1.0105 -0.0116,-0.0116 0.79649,-1.81004 0.81327,-1.81004 0.0206,0 4.49024,1.98816 4.50894,2.00565 0.0138,0.0129 -0.78126,1.82054 -0.80018,1.81927 -0.005,-3e-4 -1.02328,-0.45232 -2.26237,-1.00438 l 0,0 z"
       id="path3996-1"
       />
    <path
       d="m 648.99029,616.45274 c -1.28883,-0.41884 -2.34343,-0.77005 -2.34356,-0.78047 0,-0.022 0.59742,-1.86382 0.60839,-1.87479 0.004,-0.004 1.06397,0.33606 2.35542,0.75575 1.54908,0.50342 2.34953,0.77209 2.35233,0.78955 0.006,0.0379 -0.59183,1.86074 -0.61226,1.8666 -0.009,0.003 -1.07149,-0.33781 -2.36032,-0.75664 l 0,0 z"
       id="path3998-1"
       />
    <path
       d="m 650.53896,611.14571 c -1.32517,-0.28227 -2.4151,-0.51891 -2.42207,-0.52588 -0.007,-0.007 0.0798,-0.44807 0.19272,-0.98023 0.19454,-0.91645 0.20743,-0.96707 0.24404,-0.95826 0.0213,0.005 1.11252,0.23707 2.42502,0.51544 1.3125,0.27838 2.38872,0.50785 2.3916,0.50994 0.008,0.006 -0.392,1.88828 -0.40819,1.92289 -0.0118,0.0252 -0.34931,-0.0422 -2.42312,-0.4839 l 0,0 z"
       id="path4000-3"
       />
    <path
       d="m 546.44671,594.66349 c -1.33333,-0.14086 -2.42637,-0.25773 -2.42898,-0.25972 -0.008,-0.006 0.20209,-1.96547 0.21198,-1.97536 0.01,-0.01 4.91771,0.50265 4.92948,0.51441 0.006,0.006 -0.16849,1.71071 -0.19437,1.90085 -0.009,0.0678 -0.0175,0.0801 -0.0524,0.0782 -0.0228,-10e-4 -1.13237,-0.11753 -2.4657,-0.25838 z"
       id="path4002-8"
       />
    <path
       d="m 547.26111,589.19429 c -1.28125,-0.2739 -2.35565,-0.50306 -2.38755,-0.50925 l -0.058,-0.0113 0.20657,-0.97045 c 0.11362,-0.53375 0.20915,-0.97312 0.21229,-0.97639 0.005,-0.005 4.84266,1.01853 4.85265,1.02696 0.004,0.004 -0.38704,1.85571 -0.4036,1.90984 -0.006,0.0195 -0.0272,0.0322 -0.0515,0.0308 -0.0227,-10e-4 -1.08963,-0.2264 -2.37088,-0.5003 z"
       id="path4004-7"
       />
    <path
       d="m 548.56993,583.82375 c -1.73866,-0.56481 -2.34334,-0.7686 -2.34304,-0.78968 0,-0.0156 0.13553,-0.44176 0.30068,-0.94697 0.20653,-0.63182 0.30829,-0.91786 0.32598,-0.91631 0.0412,0.004 4.6642,1.50766 4.68183,1.52319 0.009,0.008 -0.0267,0.14494 -0.0788,0.30491 -0.0521,0.15998 -0.18973,0.58277 -0.30575,0.93954 -0.11602,0.35677 -0.2169,0.6482 -0.22418,0.64763 -0.007,-10e-4 -1.06779,-0.34361 -2.35668,-0.76231 l 0,0 z"
       id="path4006-4"
       />
    <path
       d="m 550.45882,578.62804 c -1.22917,-0.5474 -2.24148,-1.00153 -2.24959,-1.00917 -0.011,-0.0104 0.76191,-1.78395 0.79159,-1.81631 0.005,-0.006 4.51624,1.99746 4.53032,2.01153 0.0132,0.0132 -0.79842,1.81083 -0.81724,1.81005 -0.0111,0 -1.02592,-0.4487 -2.25508,-0.9961 z"
       id="path4008-2"
       />
    <path
       d="m 555.79973,568.96651 c -1.09375,-0.79591 -1.98765,-1.45885 -1.98643,-1.47318 10e-4,-0.0143 0.25995,-0.3812 0.57498,-0.81526 l 0.57279,-0.78921 0.0595,0.045 c 0.0327,0.0248 0.92028,0.66948 1.97236,1.43271 1.05208,0.76323 1.92782,1.40192 1.94608,1.4193 0.0314,0.0299 0.002,0.0748 -0.54321,0.82605 -0.31703,0.43694 -0.58339,0.79607 -0.59192,0.79807 -0.009,0.002 -0.91038,-0.64758 -2.00413,-1.4435 z"
       id="path4012-7"
       />
    <path
       d="m 559.20487,564.61268 c -1.00861,-0.90856 -1.83795,-1.65749 -1.84298,-1.6643 -0.0101,-0.0137 1.30078,-1.47437 1.32317,-1.47437 0.0183,0 3.6772,3.29506 3.67707,3.3114 -5e-5,0.007 -0.29784,0.34248 -0.66175,0.74583 l -0.66167,0.73336 -1.83384,-1.65192 0,0 z"
       id="path4014-9"
        />
    <path
       d="m 563.0664,560.66451 c -0.88872,-0.98689 -1.63431,-1.81611 -1.65688,-1.8427 l -0.041,-0.0484 0.73231,-0.65836 c 0.40277,-0.3621 0.74083,-0.65596 0.75125,-0.65301 0.0234,0.007 3.30492,3.65079 3.30492,3.6702 0,0.0142 -1.45048,1.32657 -1.46619,1.32657 -0.005,0 -0.73567,-0.80746 -1.62439,-1.79435 z"
       id="path4016-3"
       />
    <path
       d="m 567.30282,557.12856 c -0.77084,-1.06308 -1.42478,-1.96477 -1.45322,-2.00377 l -0.0517,-0.0709 0.78778,-0.57236 c 0.43327,-0.3148 0.79786,-0.57623 0.81018,-0.58096 0.0128,-0.005 0.64562,0.84891 1.47037,1.98373 0.79637,1.09578 1.4504,1.99826 1.45339,2.00551 0.006,0.0135 -1.54734,1.14911 -1.59115,1.16362 -0.0145,0.005 -0.58171,-0.76097 -1.42565,-1.92487 z"
       id="path4018-1"
       />
    <path
       d="m 577.67891,553.53942 c -0.0222,-0.0503 -0.47569,-1.06966 -1.00787,-2.2653 -0.53218,-1.19564 -0.96431,-2.17702 -0.9603,-2.18084 0.0291,-0.0278 1.80762,-0.80283 1.81698,-0.79185 0.0143,0.0168 1.98864,4.45178 2.00073,4.4943 0.006,0.0229 -0.19016,0.11778 -0.87828,0.42362 -0.48767,0.21674 -0.89665,0.39799 -0.90883,0.40277 -0.0124,0.005 -0.0398,-0.0314 -0.0624,-0.0827 l 0,0 z"
       id="path4022-8"
       />
    <path
       d="m 582.59615,551.6251 c -0.0304,-0.0503 -1.52452,-4.69312 -1.5133,-4.70252 0.0364,-0.0305 1.86505,-0.6082 1.87869,-0.59351 0.0203,0.0218 1.53546,4.69099 1.52551,4.70094 -0.009,0.009 -1.8499,0.60883 -1.86922,0.60911 -0.007,9e-5 -0.017,-0.006 -0.0217,-0.014 z"
       id="path4024-6"
       />
    <path
       d="m 587.65237,550.14782 c -0.0202,-0.0704 -1.01577,-4.77415 -1.01577,-4.7992 0,-0.0197 0.24873,-0.0793 0.96681,-0.23191 0.53174,-0.11297 0.96971,-0.20226 0.97327,-0.19842 0.018,0.0194 1.03047,4.83733 1.01872,4.84756 -0.0113,0.01 -1.88838,0.41512 -1.92275,0.41512 -0.006,0 -0.015,-0.0149 -0.0203,-0.0331 z"
       id="path4026-5"
     />
    <path
       d="m 603.87824,654.21978 c -0.005,-0.0234 -0.12025,-1.10795 -0.25596,-2.41003 -0.1357,-1.30209 -0.25104,-2.39308 -0.25629,-2.42444 l -0.01,-0.057 0.98442,-0.10283 c 0.54143,-0.0566 0.99039,-0.0969 0.99768,-0.0896 0.01,0.01 0.48453,4.4352 0.52149,4.86126 l 0.006,0.0662 -0.92796,0.0985 c -0.51038,0.0542 -0.95549,0.0989 -0.98915,0.0995 -0.0485,10e-4 -0.0631,-0.008 -0.0704,-0.0416 l 0,0 z"
       id="path3976-7"
     />
    <path
       d="m 592.83867,549.19138 c -0.0229,-0.13705 -0.51235,-4.8619 -0.50439,-4.86957 0.007,-0.007 1.70496,-0.18914 1.9205,-0.20644 l 0.0559,-0.005 0.2595,2.46212 c 0.14273,1.35417 0.25592,2.46584 0.25155,2.47038 -0.008,0.008 -1.85261,0.20751 -1.93221,0.20886 -0.0312,0.001 -0.0429,-0.0135 -0.0508,-0.0609 l 0,0 z"
       id="path4028-0"
    />
    <path
       d="m 598.09948,654.41777 c -0.003,-0.0238 -0.004,-1.11445 -0.003,-2.42358 10e-4,-1.30914 5e-4,-2.40621 -0.001,-2.43795 l -0.004,-0.0577 0.98978,10e-4 c 0.54437,0 0.99509,0.007 1.00157,0.0152 0.009,0.0108 0.0183,4.46155 0.0105,4.88914 l -0.001,0.0664 -0.93317,10e-4 c -0.51325,10e-4 -0.9606,-0.002 -0.99414,-0.004 -0.0484,-0.004 -0.0619,-0.0144 -0.0657,-0.0487 l 0,0 z"
       id="path3321"
       />
    <path
       d="m 598.09884,548.81078 c -0.009,-0.1387 -10e-4,-4.88882 0.007,-4.89562 0.007,-0.006 1.7154,-0.01 1.93156,-0.005 l 0.056,10e-4 7e-4,2.47576 c 4e-4,1.36167 -0.003,2.47908 -0.008,2.48314 -0.009,0.007 -1.86416,0.0127 -1.94346,0.006 -0.0311,-0.002 -0.0412,-0.0179 -0.0442,-0.0659 l 0,0 z"
       id="path3323"
       />
    <path
       d="m 570.62056,646.51807 c 0.01,-0.0219 0.55395,-0.96703 1.20951,-2.10021 0.65556,-1.13317 1.20352,-2.0836 1.2177,-2.11205 l 0.0258,-0.0518 0.85685,0.49544 c 0.47127,0.27249 0.85818,0.50377 0.85978,0.51396 0.002,0.0137 -2.21495,3.87296 -2.43548,4.23937 l -0.0343,0.0569 -0.80862,-0.46576 c -0.44474,-0.25618 -0.83117,-0.48158 -0.85873,-0.50092 -0.0398,-0.0277 -0.0465,-0.0434 -0.0325,-0.075 l 0,0 z"
       id="path3327"
       />
    <path
       d="m 623.4235,555.05941 c 0.062,-0.12436 2.44326,-4.23451 2.45421,-4.23604 0.009,-10e-4 1.49051,0.84914 1.67506,0.96183 l 0.0478,0.0292 -1.23726,2.14442 c -0.68049,1.17944 -1.24234,2.14534 -1.24854,2.14644 -0.0111,0.002 -1.62077,-0.92106 -1.68596,-0.96675 -0.0258,-0.0175 -0.0267,-0.0361 -0.005,-0.0791 l 0,0 z"
       id="path3329"
       />
    <path
       d="m 550.77297,625.93309 c 0.0193,-0.0142 0.96325,-0.5605 2.09756,-1.21408 1.13432,-0.65358 2.08408,-1.20269 2.11059,-1.22024 l 0.0482,-0.032 0.49434,0.85749 c 0.27188,0.47162 0.49131,0.86537 0.48761,0.87499 -0.005,0.0129 -3.85468,2.2466 -4.22887,2.45366 l -0.0582,0.0321 -0.46741,-0.80768 c -0.25707,-0.44422 -0.47902,-0.83264 -0.49322,-0.86316 -0.0207,-0.0439 -0.0185,-0.0608 0.009,-0.0812 l 0,0 z"
       id="path3333"
       />
    <path
       d="m 642.23098,573.12904 c 0.11587,-0.0767 4.23318,-2.44557 4.24342,-2.44142 0.009,0.004 0.86626,1.48063 0.96973,1.6705 l 0.0268,0.0492 -2.14371,1.2385 c -1.17904,0.68118 -2.14856,1.23674 -2.15449,1.2346 -0.0106,-0.004 -0.94309,-1.60805 -0.9767,-1.68022 -0.0136,-0.0281 -0.005,-0.0447 0.0349,-0.0712 l 0,0 z"
       id="path3335"
       />
    <path
       d="m 543.87435,598.18166 c 0.0238,-0.003 1.11445,-0.004 2.42359,-0.003 1.30914,10e-4 2.40621,5e-4 2.43794,-0.001 l 0.0577,-0.004 -6.3e-4,0.98977 c -3.5e-4,0.54438 -0.007,0.99509 -0.0152,1.00158 -0.0108,0.009 -4.46155,0.0183 -4.88914,0.0105 l -0.0664,-10e-4 -9.5e-4,-0.93317 c -5.1e-4,-0.51324 10e-4,-0.9606 0.004,-0.99413 0.004,-0.0484 0.0144,-0.0619 0.0487,-0.0657 l 0,0 z"
       id="path3339"
       />
    <path
       d="m 649.48134,598.18102 c 0.1387,-0.009 4.88882,-10e-4 4.89562,0.007 0.006,0.007 0.01,1.71539 0.005,1.93156 l -0.001,0.056 -2.47576,7e-4 c -1.36167,4e-4 -2.47908,-0.003 -2.48314,-0.008 -0.007,-0.009 -0.0127,-1.86415 -0.006,-1.94346 0.002,-0.0311 0.0179,-0.0412 0.0658,-0.0442 l 0,0 z"
       id="path3341"
       />
    <path
       d="m 551.77404,570.70274 c 0.0219,0.01 0.96703,0.55395 2.10021,1.2095 1.13317,0.65557 2.0836,1.20352 2.11205,1.21771 l 0.0518,0.0257 -0.49544,0.85685 c -0.27249,0.47127 -0.50377,0.85818 -0.51396,0.85979 -0.0137,0.002 -3.87296,-2.21496 -4.23937,-2.43549 l -0.0569,-0.0343 0.46577,-0.80863 c 0.25617,-0.44474 0.48157,-0.83116 0.50091,-0.85872 0.0277,-0.0398 0.0434,-0.0465 0.075,-0.0325 l 0,0 z"
       id="path3345"
       />
    <path
       d="m 643.2327,623.50568 c 0.12436,0.062 4.23451,2.44325 4.23603,2.4542 10e-4,0.009 -0.84913,1.49052 -0.96182,1.67506 l -0.0292,0.0478 -2.14442,-1.23726 c -1.17944,-0.68049 -2.14534,-1.24234 -2.14644,-1.24855 -0.002,-0.0111 0.92106,-1.62076 0.96675,-1.68595 0.0175,-0.0258 0.0361,-0.0267 0.0791,-0.005 l 0,0 z"
       id="path3347"
       />
    <path
       d="m 572.35901,550.85514 c 0.0142,0.0193 0.5605,0.96325 1.21408,2.09756 0.65358,1.13433 1.20269,2.08408 1.22024,2.1106 l 0.032,0.0482 -0.85749,0.49434 c -0.47162,0.27188 -0.86537,0.49132 -0.875,0.48761 -0.0129,-0.005 -2.24659,-3.85468 -2.45365,-4.22887 l -0.0321,-0.0582 0.80767,-0.46741 c 0.44423,-0.25707 0.83265,-0.47902 0.86317,-0.49322 0.0439,-0.0206 0.0608,-0.0185 0.0812,0.009 l 0,0 z"
       id="path3351"
       />
    <path
       d="m 625.16306,642.31316 c 0.0767,0.11587 2.44557,4.23317 2.44142,4.24342 -0.004,0.009 -1.48063,0.86626 -1.6705,0.96973 l -0.0492,0.0268 -1.2385,-2.14371 c -0.68118,-1.17904 -1.23674,-2.14857 -1.2346,-2.15449 0.004,-0.0106 1.60805,-0.9431 1.68021,-0.9767 0.0281,-0.0136 0.0447,-0.005 0.0712,0.0349 l 0,0 z"
       id="path3353"
      />
  </g>

<g
     transform="translate(-539.74471,-539.75957)"
     id="layer3"
     style="display:inline;fill:#000000;fill-opacity:1;stroke:#000000;stroke-width:0.002;stroke-linecap:butt;stroke-linejoin:miter;stroke-miterlimit:4;stroke-opacity:1;stroke-dasharray:none;stroke-dashoffset:0;marker:none;visibility:visible;display:inline;overflow:visible;enable-background:accumulate">
    <path
       d="m 598.15485,549.92758 0,-5.89015 0.92803,0 0.92803,0 0,5.89015 0,5.89015 -0.92803,0 -0.92803,0 0,-5.89015 z"
       id="path3844-1"
       />
    <path
       d="m 620.77983,561.61541 c -0.4375,-0.25461 -0.79546,-0.47992 -0.79546,-0.50068 0,-0.0554 5.86449,-10.20376 5.89652,-10.20376 0.0576,0 1.64098,0.94133 1.63442,0.97169 -0.0171,0.0791 -5.86914,10.17855 -5.90253,10.18662 -0.0206,0.005 -0.39545,-0.19926 -0.83295,-0.45387 z"
       id="path3854-4"
       />
    <path
       d="m 636.67941,577.49545 c -0.25847,-0.44692 -0.45103,-0.83006 -0.4279,-0.85142 0.0231,-0.0214 2.30801,-1.34586 5.07751,-2.94332 2.7695,-1.59746 5.04902,-2.91251 5.0656,-2.92234 0.0309,-0.0183 0.96228,1.56189 0.95913,1.62726 -10e-4,0.0291 -10.035,5.8405 -10.16715,5.8888 -0.0205,0.007 -0.24871,-0.35206 -0.50719,-0.79898 l 0,0 z"
       id="path3866-5"
       />
    <path
       d="m 642.48075,599.20154 0,-0.96424 5.91934,0 5.91934,0 0,0.96424 0,0.96424 -5.91934,0 -5.91934,0 0,-0.96424 z"
       id="path3878-5"
       />
    <path
       d="m 543.86959,599.18664 0,-0.98485 5.92803,0 5.92803,0 0,0.98485 0,0.98485 -5.92803,0 -5.92803,0 0,-0.98485 z"
       id="path3944-1"
        />
    <path
       d="m 551.79984,627.71442 c -0.0231,-0.0389 -0.23951,-0.4118 -0.48091,-0.82862 -0.3921,-0.67703 -0.4356,-0.76044 -0.4078,-0.78192 0.0367,-0.0284 9.99383,-5.7782 10.03085,-5.7924 0.0309,-0.0119 0.98973,1.63595 0.96481,1.65814 -0.009,0.008 -2.20671,1.27837 -4.88379,2.82301 -2.67709,1.54465 -4.93802,2.84987 -5.0243,2.9005 l -0.15687,0.092 -0.042,-0.0708 0,0 z"
       id="path3954-2"
        />
    <path
       d="m 571.48718,647.01984 c -0.49144,-0.28389 -0.8322,-0.49192 -0.83104,-0.50735 0.002,-0.0249 5.8657,-10.19641 5.89774,-10.23033 0.008,-0.009 0.39541,0.20319 0.85995,0.47137 l 0.84462,0.48759 -0.0558,0.0968 c -2.36578,4.10573 -5.86548,10.16177 -5.87269,10.16234 -0.005,0 -0.38465,-0.21577 -0.8428,-0.48043 l 0,0 z"
       id="path3964-7"
       />
    <path
       d="m 598.11434,648.48588 0,-5.92803 0.98485,0 0.98485,0 0,5.92803 0,5.92803 -0.98485,0 -0.98485,0 0,-5.92803 z"
       id="path3974-2"
        />
    <path
       d="m 625.83465,647.4596 c -0.0153,-0.0241 -1.33362,-2.30658 -2.92953,-5.0722 -1.59591,-2.76563 -2.91758,-5.05478 -2.93706,-5.08701 l -0.0354,-0.0586 0.84463,-0.48759 c 0.46455,-0.26817 0.85164,-0.48044 0.86019,-0.4717 0.009,0.009 1.29729,2.23605 2.86385,4.94959 1.56656,2.71355 2.89535,5.01518 2.95287,5.11475 l 0.10457,0.18104 -0.83363,0.48184 c -0.4585,0.26502 -0.84015,0.4845 -0.84811,0.48776 -0.008,0.003 -0.027,-0.0138 -0.0424,-0.0379 z"
       id="path3984-3"
        />
    <path
       d="m 641.30521,624.69059 c -3.24657,-1.8757 -5.1209,-2.96904 -5.11708,-2.98492 0.003,-0.0138 0.22064,-0.39724 0.48295,-0.85213 l 0.47693,-0.82706 0.0568,0.034 c 0.0312,0.0187 2.32813,1.34445 5.10417,2.94611 2.77604,1.60167 5.0589,2.92282 5.07303,2.9359 0.0213,0.0197 -0.0562,0.16602 -0.45271,0.85444 -0.26312,0.45685 -0.48349,0.83579 -0.4897,0.84208 -0.006,0.006 -2.3167,-1.3205 -5.13441,-2.94842 z"
       id="path3994-4"
        />
    <path
       d="m 555.92315,575.57624 c -2.76546,-1.59712 -5.03015,-2.91067 -5.03265,-2.919 -0.009,-0.0296 0.93829,-1.64392 0.96342,-1.64201 0.0246,0.002 10.03224,5.7733 10.05624,5.79945 0.0109,0.0118 -0.90674,1.61809 -0.94329,1.65125 -0.009,0.008 -2.27827,-1.29256 -5.04372,-2.88969 l 0,0 z"
       id="path4010-7"
        />
    <path
       d="m 576.53508,562.07079 c -0.0151,-0.0238 -1.33319,-2.30602 -2.92909,-5.07164 -1.5959,-2.76563 -2.91782,-5.05512 -2.9376,-5.08777 l -0.036,-0.0594 0.84441,-0.48752 c 0.47959,-0.2769 0.85147,-0.48036 0.86075,-0.47094 0.0134,0.0136 1.42993,2.46427 5.68047,9.82748 l 0.2407,0.41696 -0.73833,0.42584 c -0.40608,0.23421 -0.78773,0.45382 -0.84811,0.48801 l -0.10979,0.0622 -0.0275,-0.0432 z"
       id="path4020-9"
        />
  </g>
  
  
</svg>
